<?xml version="1.0" standalone="no"?>
<!DOCTYPE svg PUBLIC "-//W3C//DTD SVG 1.1//EN" "http://www.w3.org/Graphics/SVG/1.1/DTD/svg11.dtd" >
<svg>
<metadata>
Created by FontForge 20090914 at Fri Feb 24 12:59:31 2012
 By root
Copyright (c) 2011 by vernon adams. All rights reserved.
</metadata>
<defs>
<font id="HoltwoodOneSC" horiz-adv-x="1830" >
  <font-face 
    font-family="Holtwood One SC"
    font-weight="400"
    font-stretch="normal"
    units-per-em="2048"
    panose-1="2 0 0 0 0 0 0 0 0 0"
    ascent="1638"
    descent="-410"
    x-height="1408"
    cap-height="1536"
    bbox="-374 -1226 4777 2457"
    underline-thickness="102"
    underline-position="-103"
    unicode-range="U+0020-U+FB02"
  />
<missing-glyph horiz-adv-x="748" 
d="M68 0v1365h544v-1365h-544zM136 68h408v1229h-408v-1229z" />
    <glyph glyph-name=".notdef" horiz-adv-x="748" 
d="M68 0v1365h544v-1365h-544zM136 68h408v1229h-408v-1229z" />
    <glyph glyph-name=".null" horiz-adv-x="0" 
 />
    <glyph glyph-name="nonmarkingreturn" horiz-adv-x="682" 
 />
    <glyph glyph-name="space" unicode=" " horiz-adv-x="625" 
 />
    <glyph glyph-name="exclam" unicode="!" horiz-adv-x="954" 
d="M92 1137v399h769v-399l-128 -625h-512zM157 384h640v-384h-640v384z" />
    <glyph glyph-name="quotedbl" unicode="&#x22;" horiz-adv-x="916" 
d="M842 1413l-50 -505h-216l-50 505v123h316v-123zM389 1413l-50 -505h-216l-50 505v123h316v-123z" />
    <glyph glyph-name="numbersign" unicode="#" horiz-adv-x="1552" 
d="M822 256h-256l-42 -256h-384l42 256h-106v384h170l43 256h-158v384h222l43 256h384l-43 -256h256l43 256h384l-43 -256h98v-384h-162l-43 -256h153v-384h-217l-42 -256h-384zM630 640h256l43 256h-256z" />
    <glyph glyph-name="dollar" unicode="$" horiz-adv-x="1455" 
d="M599 -36q-100 6 -179.5 19t-142.5 30t-112.5 36t-89.5 38v407h301q52 -72 117.5 -106t134.5 -34q18 0 40 3t41.5 17t33 44t13.5 84q-86 8 -170.5 23t-161.5 41t-143.5 65.5t-115 95.5t-76 131.5t-27.5 174.5q0 144 44.5 241.5t119 159.5t171.5 93t202 42v351h320v-353
q85 -9 153.5 -22.5t122.5 -29t95 -32.5t73 -33v-407h-301q-51 72 -113.5 106t-128.5 34q-18 0 -41 -4.5t-43 -21t-34 -48t-14 -85.5q175 -6 308 -38t221.5 -96.5t133.5 -165t45 -242.5q0 -123 -38.5 -211t-104 -148t-152 -94.5t-182.5 -50.5v-363h-320v349z" />
    <glyph glyph-name="percent" unicode="%" horiz-adv-x="3461" 
d="M663 378q-126 0 -236.5 34.5t-193 108t-130 189.5t-47.5 280q0 158 47.5 269.5t130 181.5t193 102t236.5 32q125 0 236 -32t193.5 -102t130.5 -181.5t48 -269.5q0 -164 -48 -280t-130.5 -189.5t-193 -108t-236.5 -34.5zM1589 1536h640l-384 -1536h-640zM663 1224
q-43 0 -73 -12.5t-49 -32t-29.5 -45t-15 -51.5t-5.5 -50.5t-1 -42.5t1 -42.5t5.5 -51t15 -52t29.5 -46t49 -33t73 -12.5t73 12.5t49 33t29.5 46t15.5 52t6 51t1 42.5t-1 42.5t-6 50.5t-15.5 51.5t-29.5 45t-49 32t-73 12.5zM2797 -42q-126 0 -236.5 34.5t-193 108
t-130 189.5t-47.5 280q0 158 47.5 269.5t130 181.5t193 102t236.5 32q125 0 236 -32t193.5 -102t130.5 -181.5t48 -269.5q0 -164 -48 -280t-130.5 -189.5t-193 -108t-236.5 -34.5zM2797 804q-43 0 -73 -12.5t-49 -32t-29.5 -45t-15 -51.5t-5.5 -50.5t-1 -42.5t1 -42.5
t5.5 -51t15 -52t29.5 -46t49 -33t73 -12.5t73 12.5t49 33t29.5 46t15.5 52t6 51t1 42.5t-1 42.5t-6 50.5t-15.5 51.5t-29.5 45t-49 32t-73 12.5z" />
    <glyph glyph-name="ampersand" unicode="&#x26;" horiz-adv-x="2961" 
d="M2339 361q75 0 145 34t127 106h301v-406q-53 -22 -119 -44t-149.5 -40t-187 -29t-232.5 -11q-196 0 -334.5 47t-228.5 125q-93 -56 -193.5 -90t-202.5 -52t-202 -24t-192 -6q-200 0 -348.5 44t-246.5 116t-146.5 165t-48.5 191q0 78 13 135.5t38.5 100t64 72t89.5 52.5
q-28 10 -60.5 31.5t-60 57t-46 87.5t-18.5 124q0 44 10.5 80t32 67.5t53.5 61.5t75 62q87 64 217.5 102.5t311.5 38.5q147 0 283.5 -34t264.5 -92v-320h-301q-8 37 -24.5 63t-39 42.5t-48 24.5t-51.5 8q-31 0 -60.5 -10t-52.5 -28.5t-37 -44.5t-14 -58q0 -21 8 -42t24 -37
t39.5 -26t53.5 -10h658v541h640v-540h384v-296h-383q-1 -20 -1 -39v-38v-119q0 -27 12.5 -52.5t37.5 -46t61 -32.5t84 -12zM1016 361q87 0 162 9.5t136 24.5t109 32.5t81 32.5v239h-658q-30 0 -53.5 -13.5t-39.5 -35t-24 -49.5t-8 -57q0 -35 18.5 -67.5t55 -58.5t92 -41.5
t129.5 -15.5z" />
    <glyph glyph-name="quotesingle" unicode="'" horiz-adv-x="462" 
d="M389 1413l-50 -505h-216l-50 505v123h316v-123z" />
    <glyph glyph-name="parenleft" unicode="(" horiz-adv-x="1055" 
d="M42 768q0 101 20.5 200t62 189t103.5 167t144.5 133t185.5 88t227 32q48 0 96 -4.5t102 -15.5v-352q-69 -2 -120.5 -23.5t-88.5 -56.5t-61 -79.5t-38 -92.5t-19.5 -96t-5.5 -89t5.5 -89t19.5 -96t38 -93t61 -80t88.5 -56.5t120.5 -22.5v-352q-54 -11 -102 -15.5t-96 -4.5
q-124 0 -227 32t-185.5 88t-144.5 133t-103.5 167t-62 189t-20.5 200z" />
    <glyph glyph-name="parenright" unicode=")" horiz-adv-x="1055" 
d="M1013 768q0 -101 -20.5 -200t-62 -189t-103.5 -167t-144.5 -133t-185.5 -88t-227 -32q-48 0 -96 4.5t-102 15.5v352q69 2 120.5 23.5t88.5 56.5t61 79.5t38 92.5t19.5 95.5t5.5 89.5q0 41 -5.5 89t-19.5 96t-38 92.5t-61 79.5t-88.5 56.5t-120.5 23.5v352q54 11 102 15.5
t96 4.5q124 0 227 -32t185.5 -88t144.5 -133t103.5 -167t62 -189t20.5 -200z" />
    <glyph glyph-name="asterisk" unicode="*" horiz-adv-x="1307" 
d="M805 349h-318v125l20 178l-128 -124l-97 -76l-196 248l97 76l255 164l-260 156l-98 74l188 253l99 -73l146 -133l-18 197v123h318v-125l-21 -178l129 124l97 76l196 -248l-97 -76l-257 -163l262 -157l98 -74l-188 -253l-99 73l-147 132l19 -196v-123z" />
    <glyph glyph-name="plus" unicode="+" horiz-adv-x="1140" 
d="M58 896h384v384h256v-384h384v-256h-384v-384h-256v384h-384v256z" />
    <glyph glyph-name="comma" unicode="," horiz-adv-x="848" 
d="M104 512h640v-511q0 -127 -44 -213.5t-116 -140t-164 -76.5t-188 -23v324q19 1 41 7t41 20t32 38.5t13 62.5h-255v512z" />
    <glyph glyph-name="hyphen" unicode="-" horiz-adv-x="735" 
d="M623 896v-256h-512v256h512z" />
    <glyph glyph-name="period" unicode="." horiz-adv-x="847" 
d="M103 512h640v-512h-640v512z" />
    <glyph glyph-name="slash" unicode="/" horiz-adv-x="1133" 
d="M440 1536h640l-384 -1536h-640z" />
    <glyph glyph-name="zero" unicode="0" horiz-adv-x="1797" 
d="M898 -29q-114 0 -220 20t-199 61.5t-169.5 107t-131.5 156t-85 207.5t-30 263q0 199 64 344.5t176 240.5t264.5 141.5t330.5 46.5q114 0 220.5 -19t199.5 -59.5t169.5 -102.5t131.5 -148t85 -196.5t30 -247.5q0 -216 -65.5 -370.5t-179 -253.5t-266 -145t-325.5 -46z
M898 1102q-49 0 -82.5 -16.5t-55 -43.5t-33 -61t-17 -69t-6.5 -68t-1 -58t1 -58t6.5 -68.5t17 -70.5t33 -62.5t55 -44.5t82.5 -17t82.5 17t55 44.5t33.5 62.5t17.5 70.5t6.5 68.5t1 58t-1 58t-6.5 68t-17.5 69t-33.5 61t-55 43.5t-82.5 16.5z" />
    <glyph glyph-name="one" unicode="1" horiz-adv-x="1048" 
d="M98 1458l768 78v-1112l128 -25v-399h-896v399l128 25v600h-128v434z" />
    <glyph glyph-name="two" unicode="2" horiz-adv-x="1465" 
d="M92 515q33 12 93.5 30t133 44t147.5 60t136 78t100 98.5t39 120.5q0 43 -13.5 74.5t-36.5 52t-53.5 30.5t-64.5 10q-48 0 -97.5 -36.5t-82.5 -103.5h-301v460q40 21 92.5 43.5t120.5 41t154.5 30t194.5 11.5q162 0 296 -34.5t230 -102t148.5 -167.5t52.5 -231
q0 -89 -25 -161t-65.5 -130.5t-92.5 -103.5t-106 -79q-123 -79 -288 -121h568v-429h-1280v515z" />
    <glyph glyph-name="three" unicode="3" horiz-adv-x="1579" 
d="M668 361q48 0 84 12t61 32.5t37.5 46t12.5 52.5q0 21 -8 42t-24 37t-39.5 26t-53.5 10h-259v296h259q30 0 53.5 10t39.5 26t24 37t8 42q0 27 -12.5 52.5t-37.5 46t-61 32.5t-84 12q-75 0 -145 -34t-127 -106h-301v400q41 17 87 33t98 30q91 24 215.5 43.5t287.5 19.5
q181 0 316 -42.5t225 -111.5t134.5 -157.5t44.5 -180.5q0 -72 -19 -124t-46.5 -87.5t-60 -57t-59.5 -31.5q28 -12 60 -34.5t60 -58.5t46.5 -87t18.5 -120q0 -94 -44.5 -183t-134 -158.5t-225 -112t-316.5 -42.5q-129 0 -232.5 11t-187 29t-149.5 40t-119 44v406h301
q57 -72 127 -106t145 -34z" />
    <glyph glyph-name="four" unicode="4" horiz-adv-x="1640" 
d="M18 848l640 688l640 40v-728h320v-256h-320v-168l128 -25v-399h-896v399l128 25v168h-640v256zM386 848h272v320z" />
    <glyph glyph-name="five" unicode="5" horiz-adv-x="1474" 
d="M648 333q47 0 84 6t62.5 24t39 52t13.5 91q0 49 -16 82.5t-44.5 53.5t-67.5 28.5t-85 8.5q-48 0 -101 -3.5t-108 -10t-109 -14.5t-103 -17l-126 104v798h1222v-473h-301q-57 51 -127 75t-145 24h-158l-15 -235q54 23 111.5 34t111.5 11q81 0 159.5 -11.5t149 -36
t129.5 -61.5t102 -87.5t67 -115.5t24 -144q0 -96 -27 -174t-75.5 -138.5t-115.5 -104.5t-147 -72.5t-170.5 -42t-185.5 -13.5q-77 0 -156.5 8.5t-157.5 24t-152.5 39t-142.5 53.5v377h299q57 -72 122 -106t140 -34z" />
    <glyph glyph-name="six" unicode="6" horiz-adv-x="1662" 
d="M903 1173q-50 -2 -83.5 -17.5t-55.5 -46t-33.5 -76t-16.5 -108.5q82 7 145 8.5t111 1.5q74 0 150.5 -8.5t148.5 -27.5t135.5 -50.5t111 -78.5t75 -109.5t27.5 -144.5q0 -141 -47 -243.5t-142.5 -169.5t-240.5 -99.5t-340 -32.5q-199 0 -345.5 47t-243 144.5t-144 247.5
t-47.5 357q0 206 51 355.5t153 246.5t256 143.5t360 46.5q111 0 201 -12t162.5 -30t128 -40.5t96.5 -43.5v-381h-301q-57 54 -127 87.5t-145 33.5zM883 650q-111 0 -171 -16q6 -85 19.5 -138.5t34 -84t47.5 -42t60 -11.5q42 0 75 6t55 23t33.5 48t11.5 81q0 44 -11 70.5
t-32 40.5t-52 18.5t-70 4.5z" />
    <glyph glyph-name="seven" unicode="7" horiz-adv-x="1246" 
d="M142 -1q33 144 68.5 270t71.5 234.5t71 198.5t67 162q75 170 146 288q-62 0 -116 -11.5t-100 -30t-84 -41.5t-67 -45h-167v512h1152v-384l-90.5 -220t-96.5 -261t-99 -309t-97 -363h-659z" />
    <glyph glyph-name="eight" unicode="8" horiz-adv-x="1592" 
d="M1481 1130q0 -109 -61 -194t-167 -148q63 -30 114.5 -67.5t88 -82t56 -95t19.5 -107.5q0 -118 -45 -205.5t-138 -145t-235 -86t-335 -28.5q-185 0 -320 30.5t-223 89.5t-131 145.5t-43 199.5q0 57 19.5 107.5t55.5 95t87.5 82t114.5 67.5q-106 63 -166.5 148t-60.5 194
q0 103 40 183t124 134.5t213 83t308 28.5t308.5 -28.5t213 -83.5t123.5 -135t40 -182zM796 923q39 0 70 5.5t52 20.5t32 41.5t11 69.5q0 46 -10.5 75.5t-31.5 46t-52 22.5t-71 6q-41 0 -71.5 -6t-51.5 -22.5t-31.5 -46t-10.5 -75.5q0 -43 11 -69.5t32 -41.5t52 -20.5
t70 -5.5zM796 652q-44 0 -78.5 -6.5t-58 -25.5t-36 -52.5t-12.5 -87.5q0 -46 12 -74t35.5 -43.5t58 -20.5t79.5 -5t79.5 5t58 20.5t35.5 43.5t12 74q0 54 -12.5 87.5t-36 52.5t-58 25.5t-78.5 6.5z" />
    <glyph glyph-name="nine" unicode="9" horiz-adv-x="1659" 
d="M756 363q43 0 76 11t56.5 41t37.5 82t19 133q-66 -14 -130 -17t-130 -3q-105 0 -191 14.5t-152.5 36t-113 47t-70.5 46.5q-54 48 -85.5 110.5t-31.5 155.5q0 277 191.5 408t578.5 131q197 0 343.5 -46.5t243.5 -143.5t145 -246t48 -354q0 -206 -50 -356.5t-151.5 -248.5
t-256 -145.5t-362.5 -47.5q-141 0 -246.5 19.5t-183.5 43.5q-45 14 -84 28.5t-74 34.5v406h301q57 -72 127 -106t145 -34zM776 894q110 0 171 16q-6 82 -17.5 139t-30 92t-46.5 50.5t-67 15.5q-45 0 -78 -5t-54.5 -24t-32 -56.5t-10.5 -101.5q0 -41 11 -65.5t32 -38t52 -18
t70 -4.5z" />
    <glyph glyph-name="colon" unicode=":" horiz-adv-x="930" 
d="M145 1408h640v-512h-640v512zM145 512h640v-512h-640v512z" />
    <glyph glyph-name="semicolon" unicode=";" horiz-adv-x="860" 
d="M105 1408h640v-512h-640v512zM109 512h640v-511q0 -127 -44 -213.5t-116 -140t-164 -76.5t-188 -23v324q19 1 41 7t41 20t32 38.5t13 62.5h-255v512z" />
    <glyph glyph-name="less" unicode="&#x3c;" horiz-adv-x="1161" 
d="M523 627l544 -163v-481l-993 374v690l993 374v-632z" />
    <glyph glyph-name="equal" unicode="=" horiz-adv-x="931" 
d="M814 896v-256h-698v256h698zM814 428v-256h-698v256h698z" />
    <glyph glyph-name="greater" unicode="&#x3e;" horiz-adv-x="1160" 
d="M93 789v632l993 -374v-690l-993 -374v481l544 163z" />
    <glyph glyph-name="question" unicode="?" horiz-adv-x="1400" 
d="M706 1087q0 31 -10.5 54.5t-28 39.5t-41 24.5t-48.5 8.5q-57 0 -113 -26.5t-99 -83.5h-301v346q34 17 73 33t84 30q78 24 185.5 43.5t249.5 19.5q157 0 284.5 -28.5t217.5 -88.5t139 -152.5t49 -219.5q0 -110 -35.5 -187.5t-97 -130.5t-143.5 -86t-176 -54v-117h-637
q-1 -1 -3 -1v345q16 7 55.5 17.5l89.5 24.5t104.5 32.5t99 41.5t73.5 51.5t29 63.5zM255 383h640v-384h-640v384z" />
    <glyph glyph-name="at" unicode="@" horiz-adv-x="1868" 
d="M1813 811q0 -94 -22.5 -179t-73 -149t-130 -102t-193.5 -38q-42 0 -88 9t-87.5 25t-74.5 37.5t-50 47.5q-72 -57 -145.5 -80t-142.5 -23q-66 0 -124.5 32t-102 86t-68.5 124t-25 145q0 117 32.5 203t90.5 143t138.5 85t177.5 28q42 0 89.5 -5.5t98 -17t102 -27.5
t101.5 -37v-519q0 -31 30 -48.5t72 -17.5q21 0 44 15.5t42 49t31 86.5t12 128q0 110 -50.5 207t-138 169t-205.5 114t-252 42q-77 0 -149 -21t-135 -59.5t-114.5 -92t-88 -118.5t-57 -140t-20.5 -155q0 -143 54.5 -247.5t144.5 -173.5t205 -102.5t237 -33.5q137 0 272.5 20
t256.5 60v-249q-128 -36 -261.5 -54t-268.5 -18q-116 0 -228 23t-213 68.5t-187 113t-148.5 156t-97.5 197.5t-35 239q0 113 30 217.5t84 195.5t130 166t168.5 128t198.5 82.5t221 29.5q126 0 243 -27.5t218.5 -77.5t184.5 -120t142.5 -155t92 -182.5t32.5 -202.5z
M1040 1014q-22 3 -45.5 4.5t-43.5 1.5q-97 0 -142.5 -53t-45.5 -171q0 -51 8 -94.5t26 -75.5t46 -50.5t69 -18.5q27 0 58.5 8.5t69.5 28.5v420z" />
    <glyph glyph-name="A" unicode="A" horiz-adv-x="1777" 
d="M1151 0l-54 258h-418l-53 -258h-569v504l123 25l295 1007h826l296 -1007l123 -25v-504h-569zM765 601h246l-123 579z" />
    <glyph glyph-name="B" unicode="B" horiz-adv-x="1832" 
d="M1371 1536q158 -38 235.5 -125t77.5 -234q0 -98 -21 -164.5t-53 -110t-69.5 -67t-69.5 -34.5t-54.5 -13t-23.5 -2q39 -2 83.5 -9t88.5 -22t84 -39t70.5 -59.5t48.5 -84.5t18 -113q0 -98 -24.5 -182t-86 -145.5t-167.5 -96.5t-268 -35h-1161v434l128 25v655l-128 25v397
h1292zM1146 1044q0 51 -17.5 78.5t-46.5 40.5t-66 15t-75 2h-94v-287h94q38 0 75 2.5t66 16.5t46.5 44.5t17.5 87.5zM1146 545q0 51 -17.5 78t-46.5 40t-66 15t-75 2h-94v-287h94q38 0 75 2.5t66 16.5t46.5 45t17.5 88z" />
    <glyph glyph-name="C" unicode="C" horiz-adv-x="1636" 
d="M706 786q0 -86 22 -148t64.5 -102t104 -59t140.5 -19q94 0 222 23t283 71v-468q-161 -54 -313.5 -78t-300.5 -24q-181 0 -338.5 45t-274 145.5t-183.5 253.5t-67 360q0 202 61.5 348t174 240.5t270 139.5t349.5 45q118 0 212.5 -12t170.5 -30t134.5 -40.5t104.5 -43.5
v-460h-301q-51 72 -113.5 106t-128.5 34q-56 0 -108.5 -22t-93.5 -64t-66 -102.5t-25 -138.5z" />
    <glyph glyph-name="D" unicode="D" horiz-adv-x="1959" 
d="M1264 1536q145 -31 261 -89.5t197.5 -149.5t125 -217.5t43.5 -293.5q0 -221 -74 -371.5t-208.5 -242.5t-323.5 -132t-418 -40h-768v434l128 25v655l-128 25v397h1165zM965 459q107 0 165 23.5t84.5 66.5t31 103t4.5 134t-4.5 134.5t-31 103.5t-84.5 66.5t-165 23.5h-98
v-655h98z" />
    <glyph glyph-name="E" unicode="E" horiz-adv-x="1493" 
d="M870 384q68 0 128 11.5t110.5 29.5t91.5 41t72 46h167v-512h-1337v434l128 25v616l-128 25v436h1337v-512h-161q-32 22 -74 45t-93.5 41.5t-111.5 30t-129 11.5v-273l300 65v-354l-300 65v-271z" />
    <glyph glyph-name="F" unicode="F" horiz-adv-x="1375" 
d="M870 879l272 65v-354l-272 65v-196l128 -29v-430h-896v434l128 25v616l-128 25v436h1237v-512h-168q-24 22 -54.5 45t-68 41.5t-82 30t-96.5 11.5v-273z" />
    <glyph glyph-name="G" unicode="G" horiz-adv-x="1640" 
d="M65 786q0 209 60.5 353t172.5 236q107 88 251 136t331 48q129 0 229 -11t178.5 -29t140 -41t114.5 -48v-457h-301q-51 72 -113.5 106t-128.5 34q-56 0 -108.5 -22t-93.5 -64t-66 -102.5t-25 -138.5q0 -173 78.5 -253t223.5 -80q36 0 72.5 4t73.5 12v121h-192v274h622
v-730q-79 -33 -167.5 -62.5t-177 -51t-173.5 -30t-157 -8.5q-118 0 -226 17t-201.5 61t-170.5 110.5t-131.5 157t-84.5 205t-30 253.5z" />
    <glyph glyph-name="H" unicode="H" horiz-adv-x="2252" 
d="M102 1536h896v-436l-128 -25v-189h512v189l-128 25v436h896v-436l-128 -25v-616l128 -25v-434h-896v434l128 25v201h-512v-201l128 -25v-434h-896v434l128 25v616l-128 25v436z" />
    <glyph glyph-name="I" unicode="I" horiz-adv-x="1100" 
d="M102 1536h896v-434l-128 -25v-618l128 -25v-434h-896v434l128 25v618l-128 25v434z" />
    <glyph glyph-name="J" unicode="J" horiz-adv-x="1503" 
d="M1310 640q0 -174 -51 -299.5t-144 -207.5t-223 -116.5t-289 -34.5q-138 0 -241.5 15t-178.5 39q-86 26 -152 63v464h301q38 -72 89.5 -106t102.5 -34q27 0 53.5 14t47 41.5t33 68t12.5 93.5v437l-128 25v434h896v-434l-128 -25v-437z" />
    <glyph glyph-name="K" unicode="K" horiz-adv-x="1976" 
d="M1946 1290q-48 -35 -94 -75t-88 -82t-79.5 -84t-68.5 -81l-72 -91t-65 -91l83.5 -112.5l83.5 -108.5l73.5 -92.5l77.5 -92.5l76.5 -84.5t70.5 -68.5l1 -227h-792l-283 641v-641h-768v434l128 25v618l-128 25v434h768v-616l283 616h792z" />
    <glyph glyph-name="L" unicode="L" horiz-adv-x="1356" 
d="M870 384q48 0 90 11.5t78 29.5t65.5 41t51.5 46h167v-512h-1220v434l128 25v618l-128 25v434h896v-434l-128 -25v-693z" />
    <glyph glyph-name="M" unicode="M" horiz-adv-x="2380" 
d="M869 749v-749h-767v434l128 25v618l-128 25v434h767l322 -590l319 590h768v-434l-128 -25v-618l128 -25v-434h-768v749l-319 -552z" />
    <glyph glyph-name="N" unicode="N" horiz-adv-x="1996" 
d="M614 749v-290l128 -24v-435h-640v434l128 25v618l-128 25v434h768l512 -787v326l-128 27v434h640v-434l-128 -25v-618l128 -25v-434h-769z" />
    <glyph glyph-name="O" unicode="O" horiz-adv-x="1920" 
d="M959 -18q-122 0 -235.5 15t-213 56t-181.5 105.5t-141 155t-91.5 208t-32.5 264.5q0 138 32 249t90 197t139.5 148t181 101.5t214 58.5t238.5 19t239 -19t215 -59t181.5 -102t139.5 -148t90 -196.5t32 -248.5q0 -216 -70.5 -370.5t-192.5 -252.5t-285 -139.5t-349 -41.5z
M959 1102q-64 0 -107.5 -16.5t-72 -43.5t-43.5 -61t-22.5 -69t-8.5 -68t-1 -58t1 -58t8.5 -68.5t22.5 -70.5t43.5 -62.5t72 -44.5t107.5 -17t107.5 17t72.5 44.5t44.5 62.5t22.5 70.5t8.5 68.5t1.5 58t-1.5 58t-8.5 68t-22.5 69t-44.5 61t-72.5 43.5t-107.5 16.5z" />
    <glyph glyph-name="P" unicode="P" horiz-adv-x="1794" 
d="M102 1536h871q170 0 295 -15.5t213 -44.5t143.5 -71t87 -94t43 -114t11.5 -132q0 -72 -13.5 -135t-49.5 -115.5t-99.5 -94.5t-163 -70.5t-240 -44t-330.5 -15.5v-131l128 -25v-434h-896v434l128 25v618l-128 25v434zM870 865q58 0 105.5 6t81 25.5t51.5 56.5t18 100
q0 61 -18 97.5t-51.5 55.5t-81 25t-105.5 6v-372z" />
    <glyph glyph-name="Q" unicode="Q" horiz-adv-x="1924" 
d="M898 -459q-29 32 -60.5 75t-63 98.5t-61 124.5t-52.5 154q-131 31 -240.5 93.5t-188 160t-122.5 231.5t-44 308q0 138 32 249.5t90.5 197.5t140.5 147.5t181.5 101t213.5 58.5t237 19t237 -19t213.5 -58.5t182 -101.5t141 -148t91 -197t32.5 -249q0 -165 -39.5 -294
t-111.5 -225t-172 -160t-220 -100l96 -116.5l83 -98.5v-251h-596zM961 1102q-64 0 -107.5 -16.5t-72 -43.5t-43.5 -61t-22.5 -69t-8.5 -68t-1 -58t1 -58t8.5 -68.5t22.5 -70.5t43.5 -62.5t72 -44.5t107.5 -17t107.5 17t72.5 44.5t44.5 62.5t22.5 70.5t8.5 68.5t1.5 58
t-1.5 58t-8.5 68t-22.5 69t-44.5 61t-72.5 43.5t-107.5 16.5z" />
    <glyph glyph-name="R" unicode="R" horiz-adv-x="1840" 
d="M1765 0h-636l-62 121t-62 133t-56 143t-44 152h-35v-549h-768v434l128 25v618l-128 25v434h871q173 0 299 -16t214 -45.5t142.5 -72t85 -96t41 -117t10.5 -134.5q0 -72 -13.5 -130.5t-47.5 -107.5t-93 -89.5t-150 -76.5q19 -40 57 -93.5t82 -109l88.5 -108l76.5 -89.5
v-251zM870 844q58 0 105.5 5t81 23t51.5 53t18 94q0 58 -18 92.5t-51.5 53.5t-81 25t-105.5 6v-352z" />
    <glyph glyph-name="S" unicode="S" horiz-adv-x="1495" 
d="M1418 482q-1 -99 -28.5 -175.5t-76.5 -132t-115 -94t-142 -62t-159.5 -30t-167.5 -6.5q-152 0 -267 12q-66 8 -197 44q-107 29 -168 61v395h301q52 -72 117.5 -106t134.5 -34q18 0 40 3t41.5 17t33 44t13.5 84q-86 8 -170.5 23t-161.5 41t-143.5 65.5t-115 95.5
t-76 131.5t-27.5 174.5q0 106 28 186.5t76.5 139t114 97t141 61.5t157 29t162.5 6q118 0 212.5 -8.5t170.5 -26.5t134.5 -40.5t104.5 -43.5v-390h-301q-51 72 -113.5 106t-128.5 34q-18 0 -41 -4.5t-43 -21t-34 -48t-14 -85.5q175 -6 308 -38t221.5 -96.5t133.5 -165
t45 -242.5z" />
    <glyph glyph-name="T" unicode="T" horiz-adv-x="1480" 
d="M1444 1536v-512h-168q-17 22 -39 45t-49 41.5t-59 30t-69 11.5v-693l128 -25v-434h-896v434l128 25v693q-37 0 -69 -11.5t-59 -30t-49 -41.5t-39 -45h-168v512h1408z" />
    <glyph glyph-name="U" unicode="U" horiz-adv-x="1950" 
d="M1758 1077q-1 -32 -1 -62.5v-59.5v-169q0 -212 -57.5 -365.5t-157 -253t-232.5 -142.5t-283 -43q-117 0 -224.5 15.5t-200.5 58t-169 108t-130.5 156t-84 206.5t-29.5 260v291l-128 25v434h831v-434l-128 -25v-129v-50.5t0.5 -47.5t0.5 -39v-25q0 -25 1 -58t8.5 -68.5
t22.5 -70.5t43.5 -62.5t72 -44.5t107.5 -17t107.5 17t72.5 44.5t44.5 62.5t22.5 70.5t8.5 68.5t1.5 58v25t-0.5 39t-0.5 47.5v50.5v129l-128 25v434h738v-434z" />
    <glyph glyph-name="V" unicode="V" horiz-adv-x="1863" 
d="M576 -1l-409 1079l-152 24v434h934v-434l-110 -24l173 -569l173 569l-110 24v434h773v-434l-151 -24l-409 -1079h-712z" />
    <glyph glyph-name="W" unicode="W" horiz-adv-x="2962" 
d="M577 -1l-409 1079l-152 24v434h971v-434l-110 -24l173 -569l173 569l-110 24v434h971v-434l-110 -24l173 -569l173 569l-110 24v434h736v-434l-151 -24l-409 -1079h-712l-193 588l-192 -588h-712z" />
    <glyph glyph-name="X" unicode="X" horiz-adv-x="2010" 
d="M1825 458l152 -24v-434h-1014v434l110 24l-233 178l-193 -178l190 -24v-434h-773v434l151 24l369 330l-359 290l-182 24v434h978v-434l-110 -24l259 -188l173 188l-187 24v434h770v-434l-181 -24l-299 -310z" />
    <glyph glyph-name="Y" unicode="Y" horiz-adv-x="1943" 
d="M488 0v432l128 32l-439 614l-162 24v434h854v-434l-100 -24l203 -314l203 314l-100 24v434h853v-434l-161 -24l-439 -614l128 -32v-432h-968z" />
    <glyph glyph-name="Z" unicode="Z" horiz-adv-x="1344" 
d="M27 0v384l564 768q-57 0 -107 -11.5t-92.5 -30t-77.5 -41.5t-61 -45h-168v512h1190v-414l-504 -720q25 -3 49 -3q47 0 89.5 10t78.5 26.5t66 36.5t53 40h168v-512h-1248z" />
    <glyph glyph-name="bracketleft" unicode="[" horiz-adv-x="1242" 
d="M139 1536h1025v-385q-36 12 -78 24t-90.5 21.5t-103 16t-113.5 6.5v-903q119 0 216 22t169 46v-384h-1025v1536z" />
    <glyph glyph-name="backslash" unicode="\" horiz-adv-x="1133" 
d="M1077 0h-640l-384 1536h640z" />
    <glyph glyph-name="bracketright" unicode="]" horiz-adv-x="1242" 
d="M1103 0h-1025v384q72 -24 168.5 -46t216.5 -22v903q-120 0 -216.5 -22t-168.5 -46v385h1025v-1536z" />
    <glyph glyph-name="asciicircum" unicode="^" horiz-adv-x="1514" 
d="M53 201l409 1079h590l409 -1079h-512l-192 640l-192 -640h-512z" />
    <glyph glyph-name="underscore" unicode="_" horiz-adv-x="863" 
d="M781 224v-256h-698v256h698z" />
    <glyph glyph-name="grave" unicode="`" horiz-adv-x="900" 
d="M31 2304h490l339 -640h-425z" />
    <glyph glyph-name="a" unicode="a" horiz-adv-x="1667" 
d="M1080 0l-50 237h-393l-50 -237h-535v464l116 23l277 921h776l279 -921l115 -23v-464h-535zM698 553h271l-136 553z" />
    <glyph glyph-name="b" unicode="b" horiz-adv-x="1742" 
d="M1308 1408q148 -35 221.5 -113t73.5 -212q0 -90 -20 -152t-50.5 -102t-66 -61.5t-66 -31.5t-51 -11.5l-20.5 -1.5q36 -2 78 -8.5t83 -20t79 -35t66.5 -54.5t46 -78t17.5 -105q0 -90 -23 -167.5t-81.5 -134t-157.5 -88.5t-252 -32h-1091v399l120 23v603l-120 23v360h1214z
M1097 970q0 51 -16.5 78.5t-44 40.5t-62 15t-70.5 2h-88v-284h88q36 0 70.5 2.5t62 16t44 43.5t16.5 86zM1097 491q0 51 -16.5 78t-44 40t-62 15t-70.5 2h-88v-284h88q36 0 70.5 2.5t62 16.5t44 44t16.5 86z" />
    <glyph glyph-name="c" unicode="c" horiz-adv-x="1537" 
d="M664 723q0 -159 81 -231.5t230 -72.5q88 0 206.5 22t267.5 67v-435q-300 -91 -577 -91q-172 0 -320 40.5t-257 133.5t-171.5 234.5t-62.5 332.5q0 189 57.5 325.5t163 225t253.5 130.5t330 42q111 0 200.5 -11t161 -28t126 -37.5t96.5 -39.5v-435h-283q-48 66 -106 97.5
t-121 31.5q-52 0 -101.5 -20t-88 -58.5t-62 -94.5t-23.5 -128z" />
    <glyph glyph-name="d" unicode="d" horiz-adv-x="1841" 
d="M1189 1408q136 -29 245 -82t185.5 -135.5t117.5 -198t41 -269.5q0 -135 -31.5 -241.5t-90 -187t-143.5 -136.5t-191.5 -91t-234 -51t-271.5 -16h-722v399l120 23v603l-120 23v360h1095zM908 422q67 0 113 10t75.5 28t46 45t24 60t8.5 73t1 85t-1 85t-8.5 73.5t-24 60
t-46 45t-75.5 28.5t-113 10h-92v-603h92z" />
    <glyph glyph-name="e" unicode="e" horiz-adv-x="1395" 
d="M818 789l277 59v-285l-277 60v-221q60 0 116 8.5t104 23.5t88 35t69 43h137v-512h-1236v399l120 23v567l-120 23v396h1236v-512h-137q-29 22 -69 42t-88 35t-104 24t-116 9v-217z" />
    <glyph glyph-name="f" unicode="f" horiz-adv-x="1300" 
d="M818 759l256 59v-305l-256 60v-151l120 -26v-396h-842v399l120 23v567l-120 23v396h1163v-512h-167q-43 45 -113 77.5t-161 32.5v-247z" />
    <glyph glyph-name="g" unicode="g" horiz-adv-x="1539" 
d="M61 723q0 188 57 324.5t162 225t253.5 131t331.5 42.5q111 0 200.5 -11t161 -28t126 -37.5t96.5 -39.5v-435h-283q-23 33 -45.5 57.5t-48.5 40t-58 23.5t-75 8q-52 0 -101.5 -15.5t-88 -51t-62 -93t-23.5 -141.5q0 -98 19 -160.5t55 -99t88.5 -50.5t120.5 -14
q36 0 74.5 5t83.5 19v114h-201v246h585v-664q-74 -31 -157 -58t-166.5 -47t-163.5 -26t-148 -6q-167 0 -312 40t-252 133t-168 234.5t-61 333.5z" />
    <glyph glyph-name="h" unicode="h" horiz-adv-x="2117" 
d="M96 1408h842v-396l-120 -23v-165h481v165l-120 23v401h842v-401l-120 -23v-567l120 -23v-399h-842v399l120 23v167h-481v-167l120 -23v-399h-842v399l120 23v567l-120 23v396z" />
    <glyph glyph-name="i" unicode="i" horiz-adv-x="1036" 
d="M97 1408h842v-394l-120 -23v-569l120 -23v-399h-842v399l120 23v569l-120 23v394z" />
    <glyph glyph-name="j" unicode="j" horiz-adv-x="1413" 
d="M1232 589q0 -160 -47 -276.5t-134 -192.5t-209.5 -107t-273.5 -31q-105 0 -188 5.5t-148 22.5t-115 37.5t-87 39.5v431h283q36 -66 84 -97.5t96 -31.5q25 0 50 13t44.5 38.5t31.5 62.5t12 86v402l-121 23v394h843v-394l-121 -23v-402z" />
    <glyph glyph-name="k" unicode="k" horiz-adv-x="1768" 
d="M1760 0h-675l-266 590v-590h-722v399l120 23v569l-120 23v394h722v-562l266 562h648v-254q-59 -50 -109.5 -105t-94.5 -111t-81 -110t-67 -103l83 -129.5l91.5 -135.5t99 -133.5t105.5 -122.5v-204z" />
    <glyph glyph-name="l" unicode="l" horiz-adv-x="1279" 
d="M818 384q42 0 80 11.5t70.5 30t59 41t46.5 45.5h167v-512h-1144v399l120 23v569l-120 23v394h842v-394l-121 -23v-607z" />
    <glyph glyph-name="m" unicode="m" horiz-adv-x="2239" 
d="M818 689v-689h-721v399l120 23v569l-120 23v394h721l303 -538l300 538h721v-394l-120 -23v-569l120 -23v-399h-721v689l-300 -508z" />
    <glyph glyph-name="n" unicode="n" horiz-adv-x="1878" 
d="M578 739v-317l121 -22v-400h-602v399l120 23v569l-120 23v394h722l481 -759v340l-120 25v394h601v-394l-120 -23v-569l120 -23v-399h-722z" />
    <glyph glyph-name="o" unicode="o" horiz-adv-x="1803" 
d="M901 -18q-176 0 -329.5 37.5t-267 129t-179 233.5t-65.5 341q0 195 65.5 332.5t179.5 224t267 126.5t329 40q175 0 328.5 -40t268 -126.5t180.5 -224t66 -332.5q0 -132 -30 -239.5t-84.5 -191t-131 -144t-170.5 -100t-202 -53t-225 -13.5zM901 1020q-59 0 -99.5 -15
t-67 -39t-41.5 -55t-21.5 -63.5t-8 -64t-1.5 -55.5q0 -23 1 -54.5t7 -66t20 -68.5t40.5 -61t68 -43.5t102.5 -16.5q60 0 101.5 16t68 42.5t41.5 59.5t21.5 66.5t8 65.5t1.5 55q0 24 -1.5 55.5t-8 64.5t-21.5 64.5t-41.5 56.5t-68 40.5t-101.5 15.5z" />
    <glyph glyph-name="p" unicode="p" horiz-adv-x="1690" 
d="M97 1408h819q160 0 277.5 -14t200 -40t135 -64t82 -85.5t40 -104t10.5 -120.5q0 -66 -12.5 -124t-46.5 -106.5t-93.5 -87t-153 -65t-225.5 -40.5t-311 -14v-121l120 -23v-399h-842v399l120 23v569l-120 23v394zM819 796q55 0 99.5 6t76 26t48.5 58t17 103q0 60 -17 95
t-48.5 54t-76 24.5t-99.5 5.5v-372z" />
    <glyph glyph-name="q" unicode="q" horiz-adv-x="1808" 
d="M935 -407q-39 32 -82 73t-84.5 90.5t-77.5 108t-60 126.5q-125 28 -229.5 85t-180 147t-117.5 214t-42 286q0 195 65.5 332.5t179.5 224t267 126.5t329 40q175 0 328.5 -40t268 -126.5t180.5 -224t66 -332.5q0 -150 -36.5 -267.5t-102 -205t-157 -147t-201.5 -93.5
l85 -101.5l74 -84.5v-231h-473zM903 1020h-10q-57 0 -95.5 -15t-64 -40t-39.5 -56.5t-20.5 -63.5t-8 -63t-1.5 -54t1 -54.5t7 -66t20 -68.5t40.5 -61t68 -43.5t102.5 -16.5q60 0 101.5 16t68 42.5t41.5 59.5t21.5 66.5t8 65.5t1.5 55t-1 54t-8 64t-21 65t-39.5 57.5
t-65.5 41t-97 15.5h-10z" />
    <glyph glyph-name="r" unicode="r" horiz-adv-x="1732" 
d="M1660 0h-598l-58 110.5t-58 122.5t-52.5 132t-41.5 140h-33v-505h-722v399l120 23v569l-120 23v394h819q163 0 281.5 -14t201 -41t133.5 -65.5t79.5 -87t38.5 -106.5t10 -123q0 -66 -12.5 -120t-44.5 -99t-87.5 -82.5t-141.5 -70.5q18 -36 53.5 -85.5t77.5 -101
l83.5 -99.5l71.5 -82v-231zM819 776q55 0 99.5 5.5t76 24t48.5 54.5t17 97q0 60 -17 96t-48.5 55.5t-76 25.5t-99.5 6v-364z" />
    <glyph glyph-name="s" unicode="s" horiz-adv-x="1387" 
d="M1322 443q0 -93 -26.5 -164.5t-72 -124t-108 -87.5t-134.5 -56.5t-150.5 -25t-156.5 -3.5q-108 0 -195 5t-155.5 22t-121 37.5t-92.5 40.5v347h283q42 -66 96 -97t111 -31q17 0 38 3t39 19t30.5 49.5t12.5 94.5q-81 7 -160.5 20.5t-152 36.5t-134.5 58.5t-107.5 86
t-71.5 119t-26 157.5q0 102 26 178.5t71 131.5t106.5 91t132.5 57t148 29.5t154 8.5q109 0 195.5 -11t155 -28t121 -37.5t93.5 -39.5v-350h-303q-38 72 -87 105t-100 33q-17 0 -39 -5.5t-41 -24.5t-32 -56t-13 -100q165 -6 289.5 -35t208.5 -86.5t126 -148t42 -219.5z" />
    <glyph glyph-name="t" unicode="t" horiz-adv-x="1444" 
d="M421 1036q-52 0 -92 -14t-67 -35t-41 -45.5t-14 -45.5h-167v512h1364v-512h-167q0 21 -14 45.5t-41 45.5t-67 35t-92 14v-614l120 -23v-399h-842v399l120 23v614z" />
    <glyph glyph-name="u" unicode="u" 
d="M1650 991q-1 -30 -1 -58.5v-54.5v-155q0 -200 -55 -342.5t-149 -233.5t-220.5 -128t-268.5 -37q-164 0 -306.5 37t-248 128.5t-166 233.5t-60.5 342v268l-120 23v394h781v-394l-120 -23v-119v-48.5t0.5 -45.5t0.5 -36.5v-20.5q0 -23 1 -53.5t8 -63t21.5 -64t41 -56.5
t67 -40.5t100.5 -15.5t101.5 15.5t68 41t41.5 57.5t21.5 64.5t8 63t1.5 53.5v22.5t-0.5 36t-0.5 44v46.5v119l-120 23v394h694v-394z" />
    <glyph glyph-name="v" unicode="v" horiz-adv-x="1757" 
d="M534 -1l-374 993l-143 22v394h878v-394l-103 -22l162 -544l163 544l-104 22v394h727v-394l-142 -22l-374 -993h-690z" />
    <glyph glyph-name="w" unicode="w" horiz-adv-x="2788" 
d="M544 -1l-384 993l-143 22v394h913v-394l-104 -22l163 -524l163 524l-104 22v394h913v-394l-103 -22l162 -524l163 524l-104 22v399h692v-399l-142 -22l-384 -993h-669l-182 541l-180 -541h-670z" />
    <glyph glyph-name="x" unicode="x" horiz-adv-x="1894" 
d="M1718 421l143 -22v-399h-953v399l103 22l-219 164l-181 -164l178 -22v-399h-726v399l142 22l347 304l-338 267l-171 22v394h925v-394l-103 -22l237 -173l163 173l-179 22v394h727v-394l-170 -22l-281 -285z" />
    <glyph glyph-name="y" unicode="y" 
d="M461 0v397l120 30l-413 565l-152 22v394h803v-394l-94 -22l191 -289l190 289l-94 22v394h802v-394l-151 -22l-413 -565l121 -30v-397h-910z" />
    <glyph glyph-name="z" unicode="z" horiz-adv-x="1241" 
d="M30 0v352l517 703q-53 0 -99 -10.5t-85 -27.5t-70.5 -37.5t-55.5 -41.5h-154v470h1090v-380l-461 -660q22 -3 44 -3q43 0 82 9.5t72 24.5t60.5 33.5t48.5 36.5h154v-469h-1143z" />
    <glyph glyph-name="braceleft" unicode="{" horiz-adv-x="979" 
d="M12 1024q68 0 114.5 19.5t77.5 53t50.5 78t33 94.5t25 103t27 103t39 94.5t60.5 78t92 53t133 19.5q58 0 121 -4.5t132 -15.5v-352q-69 0 -111 -19.5t-65.5 -51.5t-33.5 -73.5t-15.5 -86.5t-10 -89.5t-18 -82.5t-40 -66t-75.5 -40q49 -12 75.5 -40t40 -66t18.5 -82.5
l10 -89.5t15 -86.5t33.5 -73.5t65.5 -51t111 -19v-352q-69 -11 -132 -15.5t-121 -4.5q-98 0 -159.5 30t-99 79t-57.5 111.5t-35.5 127.5t-32.5 127.5t-48 111.5t-83 79t-137 30v369z" />
    <glyph glyph-name="bar" unicode="|" horiz-adv-x="781" 
d="M134 1664h513v-1792h-513v1792z" />
    <glyph glyph-name="braceright" unicode="}" horiz-adv-x="979" 
d="M967 655q-85 0 -137 -30t-83 -79t-48 -111.5t-32.5 -127.5t-35.5 -127.5t-57.5 -111.5t-99 -79t-159.5 -30q-58 0 -121 4.5t-132 15.5v352q69 0 111 19t65.5 51t33.5 73.5t15 86.5l10 89.5t18.5 82.5t40 66t75.5 40q-49 12 -75.5 40t-40 66t-18 82.5t-10 89.5t-15.5 86.5
t-33.5 73.5t-65.5 51.5t-111 19.5v352q69 11 132 15.5t121 4.5q78 0 133 -19.5t92 -53t60.5 -78t39 -94.5t27 -103t25 -103t33 -94.5t50.5 -78t77.5 -53t114.5 -19.5v-369z" />
    <glyph glyph-name="asciitilde" unicode="~" horiz-adv-x="1053" 
d="M918 742q-32 -45 -74 -63t-87 -18q-46 0 -95 15t-99 33t-100 33t-98 15q-69 0 -139 -23t-144 -82l62 426q37 42 79.5 58.5t90.5 16.5q45 0 93 -18t97 -39.5t98 -39.5t97 -18q68 0 136.5 26.5t142.5 94.5z" />
    <glyph glyph-name="exclamdown" unicode="&#xa1;" horiz-adv-x="957" 
d="M159 1536h640v-384h-640v384zM223 1024h512l128 -625v-399h-704l-65 399z" />
    <glyph glyph-name="cent" unicode="&#xa2;" horiz-adv-x="1542" 
d="M669 -21q-135 23 -247.5 80t-194.5 149.5t-127.5 221t-45.5 293.5q0 164 43 288.5t122.5 212.5t193.5 140.5t256 72.5v227h385v-226q74 -9 133.5 -21t107 -26t84 -28.5t63.5 -28.5v-439h-283q-48 66 -106 97.5t-121 31.5q-52 0 -101.5 -20t-88 -58.5t-62 -94.5
t-23.5 -128q0 -159 81 -231.5t230 -72.5q88 0 208.5 22t265.5 67v-443q-198 -66 -388 -90v-233h-385v237z" />
    <glyph glyph-name="sterling" unicode="&#xa3;" horiz-adv-x="1477" 
d="M97 832h147q-140 176 -140 332q0 89 47 164.5t142 130.5t238 86t335 31q97 0 176 -12t141.5 -30.5t110.5 -40.5t83 -43v-477h-300q-9 38 -28 64.5t-44 43.5t-55 24.5t-61 7.5q-27 0 -54 -11t-48 -29t-34 -42t-13 -51q0 -35 15 -72.5t42 -75.5h324v-226h-326l-60 -262
q76 0 146.5 11.5t131.5 29.5t111 41t86 46h167v-472h-1280v434q7 11 21.5 30l33.5 42l40.5 48.5l43.5 51.5h-139v226z" />
    <glyph glyph-name="currency" unicode="&#xa4;" horiz-adv-x="1333" 
d="M1180 960q0 -81 -17.5 -147t-48.5 -121l140 -139l-181 -181l-141 141q-61 -34 -128.5 -50.5t-137.5 -16.5q-69 0 -137 17t-128 51l-142 -142l-181 181l142 142q-30 54 -47 120.5t-17 144.5t17 144t47 120l-142 143l181 181l144 -145q60 33 127 49.5t136 16.5t136 -16.5
t127 -48.5l144 144l181 -181l-141 -141q32 -54 49.5 -120.5t17.5 -145.5zM889 954q0 58 -19 101.5t-50.5 73t-71.5 44.5t-82 15q-41 0 -80.5 -15t-70 -44t-49.5 -73t-19 -102q0 -59 19 -103.5t50 -74t70.5 -44t80.5 -14.5q42 0 82 15t71 44.5t50 73.5t19 103z" />
    <glyph glyph-name="yen" unicode="&#xa5;" horiz-adv-x="2029" 
d="M247 768h214l-241 310l-162 24v434h854v-434l-100 -24l203 -310l203 310l-100 24v434h853v-434l-161 -24l-242 -310h215v-256h-412v-128h412v-256h-412v-128h-712v128h-412v256h412v128h-412v256z" />
    <glyph glyph-name="brokenbar" unicode="&#xa6;" horiz-adv-x="788" 
d="M137 1664h513v-768h-513v768zM137 704h513v-832h-513v832z" />
    <glyph glyph-name="section" unicode="&#xa7;" horiz-adv-x="1179" 
d="M86 707q0 88 26 149t71 106q-45 38 -71 90.5t-26 122.5q0 124 45 202.5t118 122.5t164.5 60t184.5 16q89 0 161 -8.5t129.5 -22t101.5 -30t77 -32.5v-284h-226q-38 57 -85 84t-98 27q-14 0 -31.5 -4.5t-32.5 -19.5t-25.5 -45t-10.5 -81q132 -5 232.5 -24.5t167.5 -58.5
t101 -100t34 -149t-26.5 -149.5t-71.5 -106.5q45 -38 71.5 -90t26.5 -122q0 -83 -20.5 -145t-57 -106.5t-85.5 -73.5t-106 -46t-119 -23.5t-124 -6.5q-112 0 -197.5 14.5t-146.5 31.5q-35 10 -66 21.5t-59 25.5v284h226q38 -57 85 -84t98 -27q14 0 31.5 4.5t32.5 19.5
t25.5 45t10.5 81q-132 4 -232.5 24t-167.5 59.5t-101 100.5t-34 148zM535 859q-21 -7 -38.5 -20t-30 -29t-19.5 -33.5t-7 -33.5q0 -32 39.5 -48.5t111.5 -27.5l54 -7q26 7 45 20t31.5 29t18.5 33.5t6 33.5q0 32 -37 50t-104 27z" />
    <glyph glyph-name="dieresis" unicode="&#xa8;" horiz-adv-x="1359" 
d="M839 2048h425v-384h-425v384zM520 2048v-384h-425v384h425z" />
    <glyph glyph-name="copyright" unicode="&#xa9;" horiz-adv-x="1738" 
d="M61 767q0 112 29 215t81.5 193t126 163.5t163.5 126t193 81.5t215 29q111 0 214 -29t193 -81.5t164 -126t126.5 -163.5t81.5 -193t29 -215t-29 -215t-81.5 -192.5t-126.5 -163.5t-164 -126.5t-193 -81.5t-214 -29q-112 0 -215 29t-193 81.5t-163.5 126.5t-126 163.5
t-81.5 192.5t-29 215zM207 767q0 -91 23.5 -176t66.5 -158.5t103.5 -134t134 -103.5t158 -66.5t176.5 -23.5q91 0 176 23.5t158.5 66.5t134 103.5t103.5 134t66.5 158t23.5 176.5q0 91 -23.5 176t-66.5 158.5t-103.5 134t-134 103.5t-158.5 66.5t-176 23.5t-176 -23.5
t-158.5 -66.5t-134 -103.5t-103.5 -134t-66.5 -158.5t-23.5 -176zM761 769q0 -96 47 -138.5t137 -42.5q51 0 124 13.5t158 39.5v-263q-88 -29 -174.5 -44.5t-167.5 -15.5q-102 0 -190.5 27t-153 83t-101.5 140.5t-37 200.5q0 112 34 193.5t96 134t150.5 78t196.5 25.5
q66 0 119 -6.5t96 -16.5t75.5 -22.5t56.5 -23.5v-261h-168q-28 40 -63 58.5t-72 18.5q-31 0 -60 -12t-52 -34.5t-37 -56t-14 -75.5z" />
    <glyph glyph-name="ordfeminine" unicode="&#xaa;" horiz-adv-x="1346" 
d="M791 640q-91 -69 -168.5 -98.5t-140.5 -29.5q-69 0 -125.5 21.5t-101 57t-77.5 83t-54.5 99.5t-32 105.5t-10.5 101.5q0 141 42 245.5t117.5 173t180.5 102.5t231 34q129 0 277.5 -27t303.5 -78v-886h-442v96zM791 1303q-29 7 -69 7q-90 0 -131 -65t-41 -206
q0 -81 17 -129.5t48.5 -73.5t76 -32.5t99.5 -7.5v507z" />
    <glyph glyph-name="guillemotleft" unicode="&#xab;" horiz-adv-x="1802" 
d="M1361 627l334 -163v-481l-733 374v690l733 374v-632zM467 627l334 -163v-481l-733 374v690l733 374v-632z" />
    <glyph glyph-name="logicalnot" unicode="&#xac;" horiz-adv-x="987" 
d="M97 896h768v-640h-256v256h-512v384z" />
    <glyph glyph-name="uni00AD" unicode="&#xad;" horiz-adv-x="735" 
 />
    <glyph glyph-name="registered" unicode="&#xae;" horiz-adv-x="1738" 
d="M61 767q0 112 29 215t81.5 193t126 163.5t163.5 126t193 81.5t215 29q111 0 214 -29t193 -81.5t164 -126t126.5 -163.5t81.5 -193t29 -215t-29 -215t-81.5 -192.5t-126.5 -163.5t-164 -126.5t-193 -81.5t-214 -29q-112 0 -215 29t-193 81.5t-163.5 126.5t-126 163.5
t-81.5 192.5t-29 215zM207 767q0 -91 23.5 -176t66.5 -158.5t103.5 -134t134 -103.5t158 -66.5t176.5 -23.5q91 0 176 23.5t158.5 66.5t134 103.5t103.5 134t66.5 158t23.5 176.5q0 91 -23.5 176t-66.5 158.5t-103.5 134t-134 103.5t-158.5 66.5t-176 23.5t-176 -23.5
t-158.5 -66.5t-134 -103.5t-103.5 -134t-66.5 -158.5t-23.5 -176zM1350 371h-349q-33 64 -68.5 140.5t-55.5 160.5h-18v-301h-422v238l71 14v339l-71 14v238h478q142 0 228 -19t132 -54t60.5 -83.5t14.5 -107.5q0 -39 -7.5 -71.5t-26 -59.5t-51 -49t-82.5 -41
q10 -22 30.5 -51.5t45 -60l49 -59.5l42.5 -50v-137zM859 834q32 0 58 3t44 12.5t28 28.5t10 52q0 31 -10 50.5t-28 30t-44 14t-58 3.5v-194z" />
    <glyph glyph-name="macron" unicode="&#xaf;" horiz-adv-x="699" 
d="M606 1752v-216h-512v216h512z" />
    <glyph glyph-name="degree" unicode="&#xb0;" horiz-adv-x="916" 
d="M860 1190q0 -98 -34.5 -171t-91 -121.5t-129 -73t-148.5 -24.5q-75 0 -147 24.5t-128.5 73t-91 121.5t-34.5 171q0 96 34.5 168.5t90.5 121t128.5 72.5t147.5 24t147.5 -24t129.5 -72.5t91.5 -121t34.5 -168.5zM631 1185q0 48 -15 84.5t-39.5 61t-55.5 37t-64 12.5
q-32 0 -63 -12t-55 -36.5t-39 -61t-15 -85.5q0 -50 15 -86.5t39 -61.5t55 -37t64 -12t64 12.5t55 37t39 61.5t15 86z" />
    <glyph glyph-name="plusminus" unicode="&#xb1;" horiz-adv-x="1146" 
d="M61 1024h384v384h256v-384h384v-256h-384v-384h-256v384h-384v256zM186 256h768v-256h-768v256z" />
    <glyph glyph-name="twosuperior" unicode="&#xb2;" horiz-adv-x="1078" 
d="M106 860q22 8 63.5 20t90 29.5t99.5 40.5t92 52.5t67.5 66.5t26.5 82q0 29 -9 50t-24.5 35t-36.5 20.5t-44 6.5q-32 0 -65 -24.5t-56 -69.5h-204v322q25 14 60 29t81.5 27.5t105.5 20.5t133 8q108 0 198.5 -22t155.5 -68t101 -116t36 -167q0 -60 -17 -108.5t-44.5 -87.5
t-62.5 -69.5t-71 -53.5q-85 -54 -194 -82h383v-290h-865v348z" />
    <glyph glyph-name="threesuperior" unicode="&#xb3;" horiz-adv-x="1149" 
d="M485 743q33 0 58 8.5t42 22t25.5 31.5t8.5 36q0 15 -5.5 29t-16.5 25t-27 18t-37 7h-177v203h177q21 0 37 7t27 18t16.5 25t5.5 29q0 18 -8.5 36t-25.5 31.5t-42 22t-58 8.5q-51 0 -99.5 -23.5t-86.5 -72.5h-206v285q33 14 77.5 29.5t102 28t130 21t161.5 8.5
q126 0 219 -29.5t154 -78.5t91 -112t30 -129q0 -50 -13 -86t-32 -60t-41.5 -38.5t-40.5 -21.5q20 -9 42.5 -24.5t41 -39.5t31 -58.5t12.5 -82.5q0 -66 -30 -128.5t-91 -111t-154 -78t-219 -29.5q-89 0 -162 7.5t-131 20t-102.5 27.5t-75.5 30v285h206q38 -51 86.5 -73.5
t99.5 -22.5z" />
    <glyph glyph-name="acute" unicode="&#xb4;" horiz-adv-x="900" 
d="M465 1664h-425l339 640h490z" />
    <glyph glyph-name="paragraph" unicode="&#xb6;" horiz-adv-x="1697" 
d="M1585 1014l-120 -23v-569l120 -23v-399h-504v896h-128v-896h-504v399l120 23v121q-111 0 -192 14t-138 40.5t-93 65t-56 87t-27 106.5t-7 124q0 64 10 120.5t38 104t77.5 85.5t128 64t191 40t265.5 14h819v-394z" />
    <glyph glyph-name="periodcentered" unicode="&#xb7;" horiz-adv-x="863" 
d="M111 1167h640v-512h-640v512z" />
    <glyph glyph-name="cedilla" unicode="&#xb8;" horiz-adv-x="724" 
d="M432 -442q0 31 -10 55.5t-27 41t-38.5 25.5t-43.5 9q-27 0 -52.5 -14t-45.5 -43h-122v496h221v-257h11q5 0 10 0.5t10 0.5q79 0 143 -18.5t109.5 -56.5t70 -97.5t24.5 -141.5q0 -84 -27 -145.5t-74 -102t-111 -60t-139 -19.5q-58 0 -121 11t-127 33v190
q63 -19 115.5 -28.5t87.5 -9.5q66 0 101 31t35 100z" />
    <glyph glyph-name="onesuperior" unicode="&#xb9;" horiz-adv-x="780" 
d="M103 1484l511 52v-718l86 -17v-289h-597v289l85 17v377h-85v289z" />
    <glyph glyph-name="ordmasculine" unicode="&#xba;" horiz-adv-x="1395" 
d="M697 479q-130 0 -243 31.5t-197 99t-132 173.5t-48 256q0 145 48.5 247t132.5 166t197 93.5t242 29.5t242 -29.5t197 -93.5t133 -166t49 -247q0 -150 -48.5 -256t-132.5 -173.5t-197.5 -99t-242.5 -31.5zM697 1254q-44 0 -74 -11t-50 -29.5t-30.5 -41.5t-15.5 -47
t-6 -46.5t-1 -39.5q0 -25 3 -62t19.5 -71.5t52.5 -59t102 -24.5t102.5 24.5t53 59t19.5 71.5t3 62q0 17 -1 39.5t-6 46.5t-15.5 47t-30.5 41.5t-50.5 29.5t-74.5 11z" />
    <glyph glyph-name="guillemotright" unicode="&#xbb;" horiz-adv-x="1803" 
d="M1001 789v632l733 -374v-690l-733 -374v481l334 163zM107 789v632l733 -374v-690l-733 -374v481l334 163z" />
    <glyph glyph-name="onequarter" unicode="&#xbc;" horiz-adv-x="2701" 
d="M1037 1536h640l-384 -1536h-640zM93 1484l511 52v-718l86 -17v-289h-597v289l85 17v377h-85v289zM1569 573l433 464l432 27v-491h216v-173h-216v-90l87 -17v-293h-606v293l87 17v90h-433v173zM1818 573h184v216z" />
    <glyph glyph-name="onehalf" unicode="&#xbd;" horiz-adv-x="2561" 
d="M1022 1536h640l-384 -1536h-640zM78 1484l511 52v-718l86 -17v-289h-597v289l85 17v377h-85v289zM1628 347q22 8 63.5 20t90 29.5t99.5 40.5t92 52.5t67.5 66.5t26.5 82q0 29 -9 50t-24.5 35t-36.5 20.5t-44 6.5q-32 0 -65 -24.5t-56 -69.5h-204v322q25 14 60 29
t81.5 27.5t105.5 20.5t133 8q108 0 198.5 -22t155.5 -68t101 -116t36 -167q0 -60 -17 -108.5t-44.5 -87.5t-62.5 -69.5t-71 -53.5q-85 -54 -194 -82h383v-290h-865v348z" />
    <glyph glyph-name="threequarters" unicode="&#xbe;" horiz-adv-x="3052" 
d="M483 743q33 0 58 8.5t42 22t25.5 31.5t8.5 36q0 15 -5.5 29t-16.5 25t-27 18t-37 7h-177v203h177q21 0 37 7t27 18t16.5 25t5.5 29q0 18 -8.5 36t-25.5 31.5t-42 22t-58 8.5q-51 0 -99.5 -23.5t-86.5 -72.5h-206v285q33 14 77.5 29.5t102 28t130 21t161.5 8.5
q126 0 219 -29.5t154 -78.5t91 -112t30 -129q0 -50 -13 -86t-32 -60t-41.5 -38.5t-40.5 -21.5q20 -9 42.5 -24.5t41 -39.5t31 -58.5t12.5 -82.5q0 -66 -30 -128.5t-91 -111t-154 -78t-219 -29.5q-89 0 -162 7.5t-131 20t-102.5 27.5t-75.5 30v285h206q38 -51 86.5 -73.5
t99.5 -22.5zM1388 1536h640l-384 -1536h-640zM1920 573l433 464l432 27v-491h216v-173h-216v-90l87 -17v-293h-606v293l87 17v90h-433v173zM2169 573h184v216z" />
    <glyph glyph-name="questiondown" unicode="&#xbf;" horiz-adv-x="1399" 
d="M1146 1153h-640v384h640v-384zM695 449q0 -31 10.5 -54.5t28 -39.5t40.5 -24.5t49 -8.5q57 0 113 26.5t99 83.5h301v-346q-66 -35 -157 -63q-78 -24 -185.5 -43.5t-249.5 -19.5q-158 0 -285.5 28.5t-217.5 88.5t-138.5 152t-48.5 220q0 110 35.5 187.5t97 130.5t143.5 86
t176 54v117h637q1 1 3 1v-345q-16 -7 -55.5 -17.5l-89.5 -24.5t-104.5 -32.5t-99 -41.5t-73.5 -52t-29 -63z" />
    <glyph glyph-name="Agrave" unicode="&#xc0;" horiz-adv-x="1777" 
d="M271 2321h490l339 -640h-425zM1151 0l-54 258h-418l-53 -258h-569v504l123 25l295 1007h826l296 -1007l123 -25v-504h-569zM765 601h246l-123 579z" />
    <glyph glyph-name="Aacute" unicode="&#xc1;" horiz-adv-x="1777" 
d="M1101 1681h-425l339 640h490zM1151 0l-54 258h-418l-53 -258h-569v504l123 25l295 1007h826l296 -1007l123 -25v-504h-569zM765 601h246l-123 579z" />
    <glyph glyph-name="Acircumflex" unicode="&#xc2;" horiz-adv-x="1777" 
d="M303 1681l340 639h490l339 -639h-425l-159 383l-160 -383h-425zM1151 0l-54 258h-418l-53 -258h-569v504l123 25l295 1007h826l296 -1007l123 -25v-504h-569zM765 601h246l-123 579z" />
    <glyph glyph-name="Atilde" unicode="&#xc3;" horiz-adv-x="1777" 
d="M1276 1771q-32 -45 -74 -63t-87 -18q-46 0 -95 15t-99 33t-100 33t-98 15q-69 0 -139 -23t-144 -82l62 426q37 42 79.5 58.5t90.5 16.5q45 0 93 -18t97 -39.5t98 -39.5t97 -18q68 0 136.5 26.5t142.5 94.5zM1151 0l-54 258h-418l-53 -258h-569v504l123 25l295 1007h826
l296 -1007l123 -25v-504h-569zM765 601h246l-123 579z" />
    <glyph glyph-name="Adieresis" unicode="&#xc4;" horiz-adv-x="1777" 
d="M1047 2065h425v-384h-425v384zM728 2065v-384h-425v384h425zM1151 0l-54 258h-418l-53 -258h-569v504l123 25l295 1007h826l296 -1007l123 -25v-504h-569zM765 601h246l-123 579z" />
    <glyph glyph-name="Aring" unicode="&#xc5;" horiz-adv-x="1777" 
d="M1290 1983q0 -98 -34.5 -171t-91 -121.5t-129 -73t-148.5 -24.5q-75 0 -147 24.5t-128.5 73t-91 121.5t-34.5 171q0 96 34.5 168.5t90.5 121t128.5 72.5t147.5 24t147.5 -24t129.5 -72.5t91.5 -121t34.5 -168.5zM1061 1978q0 48 -15 84.5t-39.5 61t-55.5 37t-64 12.5
q-32 0 -63 -12t-55 -36.5t-39 -61t-15 -85.5q0 -50 15 -86.5t39 -61.5t55 -37t64 -12t64 12.5t55 37t39 61.5t15 86zM1151 0l-54 258h-418l-53 -258h-569v504l123 25l295 1007h826l296 -1007l123 -25v-504h-569zM765 601h246l-123 579z" />
    <glyph glyph-name="AE" unicode="&#xc6;" horiz-adv-x="2308" 
d="M1656 384q71 0 133.5 11.5t115.5 29.5t96.5 41t76.5 46h167v-512h-1189l21 258h-418l-128 -258h-569l147 504l130 25l591 1007h1415v-512h-161q-33 22 -77.5 45t-99 41.5t-118 30t-133.5 11.5v-273l300 65v-354l-300 65v-271zM846 601h246l46 579z" />
    <glyph glyph-name="Ccedilla" unicode="&#xc7;" horiz-adv-x="1636" 
d="M1156 -558q0 31 -10 55.5t-27 41t-38.5 25.5t-43.5 9q-27 0 -52.5 -14t-45.5 -43h-122v496h221v-257h11q5 0 10 0.5t10 0.5q79 0 143 -18.5t109.5 -56.5t70 -97.5t24.5 -141.5q0 -84 -27 -145.5t-74 -102t-111 -60t-139 -19.5q-58 0 -121 11t-127 33v190
q63 -19 115.5 -28.5t87.5 -9.5q66 0 101 31t35 100zM706 786q0 -86 22 -148t64.5 -102t104 -59t140.5 -19q94 0 222 23t283 71v-468q-161 -54 -313.5 -78t-300.5 -24q-181 0 -338.5 45t-274 145.5t-183.5 253.5t-67 360q0 202 61.5 348t174 240.5t270 139.5t349.5 45
q118 0 212.5 -12t170.5 -30t134.5 -40.5t104.5 -43.5v-460h-301q-51 72 -113.5 106t-128.5 34q-56 0 -108.5 -22t-93.5 -64t-66 -102.5t-25 -138.5z" />
    <glyph glyph-name="Egrave" unicode="&#xc8;" horiz-adv-x="1493" 
d="M154 2321h490l339 -640h-425zM870 384q68 0 128 11.5t110.5 29.5t91.5 41t72 46h167v-512h-1337v434l128 25v616l-128 25v436h1337v-512h-161q-32 22 -74 45t-93.5 41.5t-111.5 30t-129 11.5v-273l300 65v-354l-300 65v-271z" />
    <glyph glyph-name="Eacute" unicode="&#xc9;" horiz-adv-x="1493" 
d="M983 1681h-425l339 640h490zM870 384q68 0 128 11.5t110.5 29.5t91.5 41t72 46h167v-512h-1337v434l128 25v616l-128 25v436h1337v-512h-161q-32 22 -74 45t-93.5 41.5t-111.5 30t-129 11.5v-273l300 65v-354l-300 65v-271z" />
    <glyph glyph-name="Ecircumflex" unicode="&#xca;" horiz-adv-x="1493" 
d="M186 1681l340 639h490l339 -639h-425l-159 383l-160 -383h-425zM870 384q68 0 128 11.5t110.5 29.5t91.5 41t72 46h167v-512h-1337v434l128 25v616l-128 25v436h1337v-512h-161q-32 22 -74 45t-93.5 41.5t-111.5 30t-129 11.5v-273l300 65v-354l-300 65v-271z" />
    <glyph glyph-name="Edieresis" unicode="&#xcb;" horiz-adv-x="1493" 
d="M930 2065h425v-384h-425v384zM611 2065v-384h-425v384h425zM870 384q68 0 128 11.5t110.5 29.5t91.5 41t72 46h167v-512h-1337v434l128 25v616l-128 25v436h1337v-512h-161q-32 22 -74 45t-93.5 41.5t-111.5 30t-129 11.5v-273l300 65v-354l-300 65v-271z" />
    <glyph glyph-name="Igrave" unicode="&#xcc;" horiz-adv-x="1100" 
d="M-67 2321h490l339 -640h-425zM102 1536h896v-434l-128 -25v-618l128 -25v-434h-896v434l128 25v618l-128 25v434z" />
    <glyph glyph-name="Iacute" unicode="&#xcd;" horiz-adv-x="1100" 
d="M763 1681h-425l339 640h490zM102 1536h896v-434l-128 -25v-618l128 -25v-434h-896v434l128 25v618l-128 25v434z" />
    <glyph glyph-name="Icircumflex" unicode="&#xce;" horiz-adv-x="1100" 
d="M-35 1681l340 639h490l339 -639h-425l-159 383l-160 -383h-425zM102 1536h896v-434l-128 -25v-618l128 -25v-434h-896v434l128 25v618l-128 25v434z" />
    <glyph glyph-name="Idieresis" unicode="&#xcf;" horiz-adv-x="1100" 
d="M709 2065h425v-384h-425v384zM390 2065v-384h-425v384h425zM102 1536h896v-434l-128 -25v-618l128 -25v-434h-896v434l128 25v618l-128 25v434z" />
    <glyph glyph-name="Eth" unicode="&#xd0;" horiz-adv-x="1960" 
d="M104 896h124v218l-128 25v397h1165q145 -31 261 -89.5t197.5 -149.5t125 -217.5t43.5 -293.5q0 -221 -74 -371.5t-208.5 -242.5t-323.5 -132t-418 -40h-768v434l128 25v181h-124v256zM966 459q107 0 165 23.5t84.5 66.5t31 103t4.5 134t-4.5 134.5t-31 103.5t-84.5 66.5
t-165 23.5h-98v-218h132v-256h-132v-181h98z" />
    <glyph glyph-name="Ntilde" unicode="&#xd1;" horiz-adv-x="1996" 
d="M1386 1771q-32 -45 -74 -63t-87 -18q-46 0 -95 15t-99 33t-100 33t-98 15q-69 0 -139 -23t-144 -82l62 426q37 42 79.5 58.5t90.5 16.5q45 0 93 -18t97 -39.5t98 -39.5t97 -18q68 0 136.5 26.5t142.5 94.5zM614 749v-290l128 -24v-435h-640v434l128 25v618l-128 25v434
h768l512 -787v326l-128 27v434h640v-434l-128 -25v-618l128 -25v-434h-769z" />
    <glyph glyph-name="Ograve" unicode="&#xd2;" horiz-adv-x="1920" 
d="M343 2321h490l339 -640h-425zM959 -18q-122 0 -235.5 15t-213 56t-181.5 105.5t-141 155t-91.5 208t-32.5 264.5q0 138 32 249t90 197t139.5 148t181 101.5t214 58.5t238.5 19t239 -19t215 -59t181.5 -102t139.5 -148t90 -196.5t32 -248.5q0 -216 -70.5 -370.5
t-192.5 -252.5t-285 -139.5t-349 -41.5zM959 1102q-64 0 -107.5 -16.5t-72 -43.5t-43.5 -61t-22.5 -69t-8.5 -68t-1 -58t1 -58t8.5 -68.5t22.5 -70.5t43.5 -62.5t72 -44.5t107.5 -17t107.5 17t72.5 44.5t44.5 62.5t22.5 70.5t8.5 68.5t1.5 58t-1.5 58t-8.5 68t-22.5 69
t-44.5 61t-72.5 43.5t-107.5 16.5z" />
    <glyph glyph-name="Oacute" unicode="&#xd3;" horiz-adv-x="1920" 
d="M1171 1681h-425l339 640h490zM959 -18q-122 0 -235.5 15t-213 56t-181.5 105.5t-141 155t-91.5 208t-32.5 264.5q0 138 32 249t90 197t139.5 148t181 101.5t214 58.5t238.5 19t239 -19t215 -59t181.5 -102t139.5 -148t90 -196.5t32 -248.5q0 -216 -70.5 -370.5
t-192.5 -252.5t-285 -139.5t-349 -41.5zM959 1102q-64 0 -107.5 -16.5t-72 -43.5t-43.5 -61t-22.5 -69t-8.5 -68t-1 -58t1 -58t8.5 -68.5t22.5 -70.5t43.5 -62.5t72 -44.5t107.5 -17t107.5 17t72.5 44.5t44.5 62.5t22.5 70.5t8.5 68.5t1.5 58t-1.5 58t-8.5 68t-22.5 69
t-44.5 61t-72.5 43.5t-107.5 16.5z" />
    <glyph glyph-name="Ocircumflex" unicode="&#xd4;" horiz-adv-x="1920" 
d="M375 1681l340 639h490l339 -639h-425l-159 383l-160 -383h-425zM959 -18q-122 0 -235.5 15t-213 56t-181.5 105.5t-141 155t-91.5 208t-32.5 264.5q0 138 32 249t90 197t139.5 148t181 101.5t214 58.5t238.5 19t239 -19t215 -59t181.5 -102t139.5 -148t90 -196.5
t32 -248.5q0 -216 -70.5 -370.5t-192.5 -252.5t-285 -139.5t-349 -41.5zM959 1102q-64 0 -107.5 -16.5t-72 -43.5t-43.5 -61t-22.5 -69t-8.5 -68t-1 -58t1 -58t8.5 -68.5t22.5 -70.5t43.5 -62.5t72 -44.5t107.5 -17t107.5 17t72.5 44.5t44.5 62.5t22.5 70.5t8.5 68.5t1.5 58
t-1.5 58t-8.5 68t-22.5 69t-44.5 61t-72.5 43.5t-107.5 16.5z" />
    <glyph glyph-name="Otilde" unicode="&#xd5;" horiz-adv-x="1920" 
d="M1347 1771q-32 -45 -74 -63t-87 -18q-46 0 -95 15t-99 33t-100 33t-98 15q-69 0 -139 -23t-144 -82l62 426q37 42 79.5 58.5t90.5 16.5q45 0 93 -18t97 -39.5t98 -39.5t97 -18q68 0 136.5 26.5t142.5 94.5zM959 -18q-122 0 -235.5 15t-213 56t-181.5 105.5t-141 155
t-91.5 208t-32.5 264.5q0 138 32 249t90 197t139.5 148t181 101.5t214 58.5t238.5 19t239 -19t215 -59t181.5 -102t139.5 -148t90 -196.5t32 -248.5q0 -216 -70.5 -370.5t-192.5 -252.5t-285 -139.5t-349 -41.5zM959 1102q-64 0 -107.5 -16.5t-72 -43.5t-43.5 -61t-22.5 -69
t-8.5 -68t-1 -58t1 -58t8.5 -68.5t22.5 -70.5t43.5 -62.5t72 -44.5t107.5 -17t107.5 17t72.5 44.5t44.5 62.5t22.5 70.5t8.5 68.5t1.5 58t-1.5 58t-8.5 68t-22.5 69t-44.5 61t-72.5 43.5t-107.5 16.5z" />
    <glyph glyph-name="Odieresis" unicode="&#xd6;" horiz-adv-x="1920" 
d="M1119 2065h425v-384h-425v384zM800 2065v-384h-425v384h425zM959 -18q-122 0 -235.5 15t-213 56t-181.5 105.5t-141 155t-91.5 208t-32.5 264.5q0 138 32 249t90 197t139.5 148t181 101.5t214 58.5t238.5 19t239 -19t215 -59t181.5 -102t139.5 -148t90 -196.5t32 -248.5
q0 -216 -70.5 -370.5t-192.5 -252.5t-285 -139.5t-349 -41.5zM959 1102q-64 0 -107.5 -16.5t-72 -43.5t-43.5 -61t-22.5 -69t-8.5 -68t-1 -58t1 -58t8.5 -68.5t22.5 -70.5t43.5 -62.5t72 -44.5t107.5 -17t107.5 17t72.5 44.5t44.5 62.5t22.5 70.5t8.5 68.5t1.5 58t-1.5 58
t-8.5 68t-22.5 69t-44.5 61t-72.5 43.5t-107.5 16.5z" />
    <glyph glyph-name="multiply" unicode="&#xd7;" horiz-adv-x="1044" 
d="M69 496l272 272l-272 272l181 181l272 -272l272 272l181 -181l-272 -272l272 -272l-181 -181l-272 272l-272 -272z" />
    <glyph glyph-name="Oslash" unicode="&#xd8;" horiz-adv-x="1921" 
d="M960 -40q-135 0 -256 24l-91 -192l-192 80l83 172q-99 43 -180 109t-138.5 157.5t-89 210t-31.5 265.5q0 142 31.5 255.5t89.5 201.5t139.5 151t181 103.5t214 59.5t239.5 19q73 0 140.5 -6t130.5 -19l86 177l192 -64l-83 -172q97 -41 176.5 -104t136 -150t87.5 -199.5
t31 -252.5q0 -221 -70 -377.5t-191.5 -256.5t-285 -146t-350.5 -46zM960 1102q-64 0 -107.5 -16.5t-72 -43.5t-43.5 -61t-22.5 -69t-8.5 -68t-1 -58q0 -21 0.5 -49t5 -58t14.5 -61t28 -58l260 538q-11 2 -24.5 3t-28.5 1zM1217 786q0 19 -1 42.5t-4 49t-10 52.5t-19 53
l-248 -517q6 -1 12 -1h13q64 0 107.5 17t72.5 44.5t44.5 62.5t22.5 70.5t8.5 68.5t1.5 58z" />
    <glyph glyph-name="Ugrave" unicode="&#xd9;" horiz-adv-x="1950" 
d="M357 2321h490l339 -640h-425zM1758 1077q-1 -32 -1 -62.5v-59.5v-169q0 -212 -57.5 -365.5t-157 -253t-232.5 -142.5t-283 -43q-117 0 -224.5 15.5t-200.5 58t-169 108t-130.5 156t-84 206.5t-29.5 260v291l-128 25v434h831v-434l-128 -25v-129v-50.5t0.5 -47.5t0.5 -39
v-25q0 -25 1 -58t8.5 -68.5t22.5 -70.5t43.5 -62.5t72 -44.5t107.5 -17t107.5 17t72.5 44.5t44.5 62.5t22.5 70.5t8.5 68.5t1.5 58v25t-0.5 39t-0.5 47.5v50.5v129l-128 25v434h738v-434z" />
    <glyph glyph-name="Uacute" unicode="&#xda;" horiz-adv-x="1950" 
d="M1186 1681h-425l339 640h490zM1758 1077q-1 -32 -1 -62.5v-59.5v-169q0 -212 -57.5 -365.5t-157 -253t-232.5 -142.5t-283 -43q-117 0 -224.5 15.5t-200.5 58t-169 108t-130.5 156t-84 206.5t-29.5 260v291l-128 25v434h831v-434l-128 -25v-129v-50.5t0.5 -47.5t0.5 -39
v-25q0 -25 1 -58t8.5 -68.5t22.5 -70.5t43.5 -62.5t72 -44.5t107.5 -17t107.5 17t72.5 44.5t44.5 62.5t22.5 70.5t8.5 68.5t1.5 58v25t-0.5 39t-0.5 47.5v50.5v129l-128 25v434h738v-434z" />
    <glyph glyph-name="Ucircumflex" unicode="&#xdb;" horiz-adv-x="1950" 
d="M389 1681l340 639h490l339 -639h-425l-159 383l-160 -383h-425zM1758 1077q-1 -32 -1 -62.5v-59.5v-169q0 -212 -57.5 -365.5t-157 -253t-232.5 -142.5t-283 -43q-117 0 -224.5 15.5t-200.5 58t-169 108t-130.5 156t-84 206.5t-29.5 260v291l-128 25v434h831v-434
l-128 -25v-129v-50.5t0.5 -47.5t0.5 -39v-25q0 -25 1 -58t8.5 -68.5t22.5 -70.5t43.5 -62.5t72 -44.5t107.5 -17t107.5 17t72.5 44.5t44.5 62.5t22.5 70.5t8.5 68.5t1.5 58v25t-0.5 39t-0.5 47.5v50.5v129l-128 25v434h738v-434z" />
    <glyph glyph-name="Udieresis" unicode="&#xdc;" horiz-adv-x="1950" 
d="M1133 2065h425v-384h-425v384zM814 2065v-384h-425v384h425zM1758 1077q-1 -32 -1 -62.5v-59.5v-169q0 -212 -57.5 -365.5t-157 -253t-232.5 -142.5t-283 -43q-117 0 -224.5 15.5t-200.5 58t-169 108t-130.5 156t-84 206.5t-29.5 260v291l-128 25v434h831v-434l-128 -25
v-129v-50.5t0.5 -47.5t0.5 -39v-25q0 -25 1 -58t8.5 -68.5t22.5 -70.5t43.5 -62.5t72 -44.5t107.5 -17t107.5 17t72.5 44.5t44.5 62.5t22.5 70.5t8.5 68.5t1.5 58v25t-0.5 39t-0.5 47.5v50.5v129l-128 25v434h738v-434z" />
    <glyph glyph-name="Yacute" unicode="&#xdd;" horiz-adv-x="1943" 
d="M1184 1681h-425l339 640h490zM488 0v432l128 32l-439 614l-162 24v434h854v-434l-100 -24l203 -314l203 314l-100 24v434h853v-434l-161 -24l-439 -614l128 -32v-432h-968z" />
    <glyph glyph-name="Thorn" unicode="&#xde;" horiz-adv-x="1793" 
d="M100 1664h768v-175h103q170 0 295 -13.5t213 -40.5t143.5 -67.5t87 -94.5t43 -121t11.5 -147q0 -63 -13.5 -122t-49.5 -110.5t-99.5 -94t-163 -72.5t-240 -46.5t-330.5 -16.5v-84l128 -25v-434h-896v434l128 25v699l-128 25v481zM868 818q58 0 105.5 6t81 25.5t51.5 56.5
t18 100q0 61 -18 97.5t-51.5 55.5t-81 25t-105.5 6v-372z" />
    <glyph glyph-name="germandbls" unicode="&#xdf;" horiz-adv-x="1812" 
d="M953 385q60 0 97.5 12.5t59 33.5t29 47.5t7.5 54.5q0 27 -7.5 53.5t-28.5 47.5t-59 33.5t-98 12.5v215q61 0 99 13t59 34.5t28 48.5t7 55q0 27 -6 53t-25 46t-53 32.5t-90 12.5q-28 0 -54.5 -9t-47 -27t-33 -45.5t-12.5 -64.5v-1044h-768v434l128 25v718q0 147 79.5 234
t237.5 125h606q135 0 232 -33.5t159 -88.5t91.5 -124.5t29.5 -142.5q0 -57 -17 -112t-49 -103t-78.5 -86t-104.5 -60q39 -2 83.5 -9t88.5 -22t84 -39t70.5 -59.5t48.5 -84.5t18 -113q0 -98 -24.5 -182t-86 -145.5t-167.5 -96.5t-268 -35h-265v385z" />
    <glyph glyph-name="agrave" unicode="&#xe0;" horiz-adv-x="1667" 
d="M217 2208h490l339 -640h-425zM1080 0l-50 237h-393l-50 -237h-535v464l116 23l277 921h776l279 -921l115 -23v-464h-535zM698 553h271l-136 553z" />
    <glyph glyph-name="aacute" unicode="&#xe1;" horiz-adv-x="1667" 
d="M1045 1568h-425l339 640h490zM1080 0l-50 237h-393l-50 -237h-535v464l116 23l277 921h776l279 -921l115 -23v-464h-535zM698 553h271l-136 553z" />
    <glyph glyph-name="acircumflex" unicode="&#xe2;" horiz-adv-x="1667" 
d="M249 1568l340 639h490l339 -639h-425l-159 383l-160 -383h-425zM1080 0l-50 237h-393l-50 -237h-535v464l116 23l277 921h776l279 -921l115 -23v-464h-535zM698 553h271l-136 553z" />
    <glyph glyph-name="atilde" unicode="&#xe3;" horiz-adv-x="1667" 
d="M1221 1658q-32 -45 -74 -63t-87 -18q-46 0 -95 15t-99 33t-100 33t-98 15q-69 0 -139 -23t-144 -82l62 426q37 42 79.5 58.5t90.5 16.5q45 0 93 -18t97 -39.5t98 -39.5t97 -18q68 0 136.5 26.5t142.5 94.5zM1080 0l-50 237h-393l-50 -237h-535v464l116 23l277 921h776
l279 -921l115 -23v-464h-535zM698 553h271l-136 553z" />
    <glyph glyph-name="adieresis" unicode="&#xe4;" horiz-adv-x="1667" 
d="M993 1952h425v-384h-425v384zM674 1952v-384h-425v384h425zM1080 0l-50 237h-393l-50 -237h-535v464l116 23l277 921h776l279 -921l115 -23v-464h-535zM698 553h271l-136 553z" />
    <glyph glyph-name="aring" unicode="&#xe5;" horiz-adv-x="1667" 
d="M1235 1958q0 -98 -34.5 -171t-91 -121.5t-129 -73t-148.5 -24.5q-75 0 -147 24.5t-128.5 73t-91 121.5t-34.5 171q0 96 34.5 168.5t90.5 121t128.5 72.5t147.5 24t147.5 -24t129.5 -72.5t91.5 -121t34.5 -168.5zM1006 1953q0 48 -15 84.5t-39.5 61t-55.5 37t-64 12.5
q-32 0 -63 -12t-55 -36.5t-39 -61t-15 -85.5q0 -50 15 -86.5t39 -61.5t55 -37t64 -12t64 12.5t55 37t39 61.5t15 86zM1080 0l-50 237h-393l-50 -237h-535v464l116 23l277 921h776l279 -921l115 -23v-464h-535zM698 553h271l-136 553z" />
    <glyph glyph-name="ae" unicode="&#xe6;" horiz-adv-x="2256" 
d="M1650 789l277 59v-285l-277 60v-221q62 0 119 8.5t106.5 23.5t90.5 35t71 43h167v-512h-1214l22 237h-393l-122 -237h-532l137 464l122 23l556 921h1424v-512h-167q-30 22 -71 42t-90.5 35t-106.5 24t-119 9v-217zM775 553h301v553z" />
    <glyph glyph-name="ccedilla" unicode="&#xe7;" horiz-adv-x="1537" 
d="M1100 -558q0 31 -10 55.5t-27 41t-38.5 25.5t-43.5 9q-27 0 -52.5 -14t-45.5 -43h-122v496h221v-257h11q5 0 10 0.5t10 0.5q79 0 143 -18.5t109.5 -56.5t70 -97.5t24.5 -141.5q0 -84 -27 -145.5t-74 -102t-111 -60t-139 -19.5q-58 0 -121 11t-127 33v190
q63 -19 115.5 -28.5t87.5 -9.5q66 0 101 31t35 100zM664 723q0 -159 81 -231.5t230 -72.5q88 0 206.5 22t267.5 67v-435q-300 -91 -577 -91q-172 0 -320 40.5t-257 133.5t-171.5 234.5t-62.5 332.5q0 189 57.5 325.5t163 225t253.5 130.5t330 42q111 0 200.5 -11t161 -28
t126 -37.5t96.5 -39.5v-435h-283q-48 66 -106 97.5t-121 31.5q-52 0 -101.5 -20t-88 -58.5t-62 -94.5t-23.5 -128z" />
    <glyph glyph-name="egrave" unicode="&#xe8;" horiz-adv-x="1395" 
d="M97 2208h490l339 -640h-425zM818 789l277 59v-285l-277 60v-221q60 0 116 8.5t104 23.5t88 35t69 43h137v-512h-1236v399l120 23v567l-120 23v396h1236v-512h-137q-29 22 -69 42t-88 35t-104 24t-116 9v-217z" />
    <glyph glyph-name="eacute" unicode="&#xe9;" horiz-adv-x="1395" 
d="M927 1568h-425l339 640h490zM818 789l277 59v-285l-277 60v-221q60 0 116 8.5t104 23.5t88 35t69 43h137v-512h-1236v399l120 23v567l-120 23v396h1236v-512h-137q-29 22 -69 42t-88 35t-104 24t-116 9v-217z" />
    <glyph glyph-name="ecircumflex" unicode="&#xea;" horiz-adv-x="1395" 
d="M129 1568l340 639h490l339 -639h-425l-159 383l-160 -383h-425zM818 789l277 59v-285l-277 60v-221q60 0 116 8.5t104 23.5t88 35t69 43h137v-512h-1236v399l120 23v567l-120 23v396h1236v-512h-137q-29 22 -69 42t-88 35t-104 24t-116 9v-217z" />
    <glyph glyph-name="edieresis" unicode="&#xeb;" horiz-adv-x="1395" 
d="M873 1952h425v-384h-425v384zM554 1952v-384h-425v384h425zM818 789l277 59v-285l-277 60v-221q60 0 116 8.5t104 23.5t88 35t69 43h137v-512h-1236v399l120 23v567l-120 23v396h1236v-512h-137q-29 22 -69 42t-88 35t-104 24t-116 9v-217z" />
    <glyph glyph-name="igrave" unicode="&#xec;" horiz-adv-x="1036" 
d="M-99 2208h490l339 -640h-425zM97 1408h842v-394l-120 -23v-569l120 -23v-399h-842v399l120 23v569l-120 23v394z" />
    <glyph glyph-name="iacute" unicode="&#xed;" horiz-adv-x="1036" 
d="M731 1568h-425l339 640h490zM97 1408h842v-394l-120 -23v-569l120 -23v-399h-842v399l120 23v569l-120 23v394z" />
    <glyph glyph-name="icircumflex" unicode="&#xee;" horiz-adv-x="1036" 
d="M-67 1568l340 639h490l339 -639h-425l-159 383l-160 -383h-425zM97 1408h842v-394l-120 -23v-569l120 -23v-399h-842v399l120 23v569l-120 23v394z" />
    <glyph glyph-name="idieresis" unicode="&#xef;" horiz-adv-x="1036" 
d="M677 1952h425v-384h-425v384zM358 1952v-384h-425v384h425zM97 1408h842v-394l-120 -23v-569l120 -23v-399h-842v399l120 23v569l-120 23v394z" />
    <glyph glyph-name="eth" unicode="&#xf0;" horiz-adv-x="1842" 
d="M98 848h117v177l-120 23v360h1095q136 -29 245 -82t185.5 -135.5t117.5 -198t41 -269.5q0 -135 -31.5 -241.5t-90 -187t-143.5 -136.5t-191.5 -91t-234 -51t-271.5 -16h-722v399l120 23v170h-117v256zM909 422q67 0 113 10t75.5 28t46 45t24 60t8.5 73t1 85t-1 85
t-8.5 73.5t-24 60t-46 45t-75.5 28.5t-113 10h-92v-177h177v-256h-177v-170h92z" />
    <glyph glyph-name="ntilde" unicode="&#xf1;" horiz-adv-x="1878" 
d="M1327 1658q-32 -45 -74 -63t-87 -18q-46 0 -95 15t-99 33t-100 33t-98 15q-69 0 -139 -23t-144 -82l62 426q37 42 79.5 58.5t90.5 16.5q45 0 93 -18t97 -39.5t98 -39.5t97 -18q68 0 136.5 26.5t142.5 94.5zM578 739v-317l121 -22v-400h-602v399l120 23v569l-120 23v394
h722l481 -759v340l-120 25v394h601v-394l-120 -23v-569l120 -23v-399h-722z" />
    <glyph glyph-name="ograve" unicode="&#xf2;" horiz-adv-x="1803" 
d="M285 2208h490l339 -640h-425zM901 -18q-176 0 -329.5 37.5t-267 129t-179 233.5t-65.5 341q0 195 65.5 332.5t179.5 224t267 126.5t329 40q175 0 328.5 -40t268 -126.5t180.5 -224t66 -332.5q0 -132 -30 -239.5t-84.5 -191t-131 -144t-170.5 -100t-202 -53t-225 -13.5z
M901 1020q-59 0 -99.5 -15t-67 -39t-41.5 -55t-21.5 -63.5t-8 -64t-1.5 -55.5q0 -23 1 -54.5t7 -66t20 -68.5t40.5 -61t68 -43.5t102.5 -16.5q60 0 101.5 16t68 42.5t41.5 59.5t21.5 66.5t8 65.5t1.5 55q0 24 -1.5 55.5t-8 64.5t-21.5 64.5t-41.5 56.5t-68 40.5t-101.5 15.5
z" />
    <glyph glyph-name="oacute" unicode="&#xf3;" horiz-adv-x="1803" 
d="M1113 1568h-425l339 640h490zM901 -18q-176 0 -329.5 37.5t-267 129t-179 233.5t-65.5 341q0 195 65.5 332.5t179.5 224t267 126.5t329 40q175 0 328.5 -40t268 -126.5t180.5 -224t66 -332.5q0 -132 -30 -239.5t-84.5 -191t-131 -144t-170.5 -100t-202 -53t-225 -13.5z
M901 1020q-59 0 -99.5 -15t-67 -39t-41.5 -55t-21.5 -63.5t-8 -64t-1.5 -55.5q0 -23 1 -54.5t7 -66t20 -68.5t40.5 -61t68 -43.5t102.5 -16.5q60 0 101.5 16t68 42.5t41.5 59.5t21.5 66.5t8 65.5t1.5 55q0 24 -1.5 55.5t-8 64.5t-21.5 64.5t-41.5 56.5t-68 40.5t-101.5 15.5
z" />
    <glyph glyph-name="ocircumflex" unicode="&#xf4;" horiz-adv-x="1803" 
d="M317 1568l340 639h490l339 -639h-425l-159 383l-160 -383h-425zM901 -18q-176 0 -329.5 37.5t-267 129t-179 233.5t-65.5 341q0 195 65.5 332.5t179.5 224t267 126.5t329 40q175 0 328.5 -40t268 -126.5t180.5 -224t66 -332.5q0 -132 -30 -239.5t-84.5 -191t-131 -144
t-170.5 -100t-202 -53t-225 -13.5zM901 1020q-59 0 -99.5 -15t-67 -39t-41.5 -55t-21.5 -63.5t-8 -64t-1.5 -55.5q0 -23 1 -54.5t7 -66t20 -68.5t40.5 -61t68 -43.5t102.5 -16.5q60 0 101.5 16t68 42.5t41.5 59.5t21.5 66.5t8 65.5t1.5 55q0 24 -1.5 55.5t-8 64.5
t-21.5 64.5t-41.5 56.5t-68 40.5t-101.5 15.5z" />
    <glyph glyph-name="otilde" unicode="&#xf5;" horiz-adv-x="1803" 
d="M1289 1658q-32 -45 -74 -63t-87 -18q-46 0 -95 15t-99 33t-100 33t-98 15q-69 0 -139 -23t-144 -82l62 426q37 42 79.5 58.5t90.5 16.5q45 0 93 -18t97 -39.5t98 -39.5t97 -18q68 0 136.5 26.5t142.5 94.5zM901 -18q-176 0 -329.5 37.5t-267 129t-179 233.5t-65.5 341
q0 195 65.5 332.5t179.5 224t267 126.5t329 40q175 0 328.5 -40t268 -126.5t180.5 -224t66 -332.5q0 -132 -30 -239.5t-84.5 -191t-131 -144t-170.5 -100t-202 -53t-225 -13.5zM901 1020q-59 0 -99.5 -15t-67 -39t-41.5 -55t-21.5 -63.5t-8 -64t-1.5 -55.5q0 -23 1 -54.5
t7 -66t20 -68.5t40.5 -61t68 -43.5t102.5 -16.5q60 0 101.5 16t68 42.5t41.5 59.5t21.5 66.5t8 65.5t1.5 55q0 24 -1.5 55.5t-8 64.5t-21.5 64.5t-41.5 56.5t-68 40.5t-101.5 15.5z" />
    <glyph glyph-name="odieresis" unicode="&#xf6;" horiz-adv-x="1803" 
d="M1061 1952h425v-384h-425v384zM742 1952v-384h-425v384h425zM901 -18q-176 0 -329.5 37.5t-267 129t-179 233.5t-65.5 341q0 195 65.5 332.5t179.5 224t267 126.5t329 40q175 0 328.5 -40t268 -126.5t180.5 -224t66 -332.5q0 -132 -30 -239.5t-84.5 -191t-131 -144
t-170.5 -100t-202 -53t-225 -13.5zM901 1020q-59 0 -99.5 -15t-67 -39t-41.5 -55t-21.5 -63.5t-8 -64t-1.5 -55.5q0 -23 1 -54.5t7 -66t20 -68.5t40.5 -61t68 -43.5t102.5 -16.5q60 0 101.5 16t68 42.5t41.5 59.5t21.5 66.5t8 65.5t1.5 55q0 24 -1.5 55.5t-8 64.5
t-21.5 64.5t-41.5 56.5t-68 40.5t-101.5 15.5z" />
    <glyph glyph-name="divide" unicode="&#xf7;" horiz-adv-x="916" 
d="M266 1280h384v-384h-384v384zM74 768h768v-256h-768v256zM266 384h384v-384h-384v384z" />
    <glyph glyph-name="oslash" unicode="&#xf8;" horiz-adv-x="1803" 
d="M901 -37q-63 0 -120 5t-114 15l-91 -191l-192 80l82 171q-92 40 -167 101t-128 144.5t-82 191.5t-29 243q0 196 65.5 334.5t179.5 225.5t267 127t329 40q62 0 120 -4.5t113 -14.5l82 169l192 -64l-77 -160q93 -38 169 -96t130 -138t84 -184.5t30 -234.5q0 -135 -30 -244
t-84.5 -193.5t-131 -145.5t-170.5 -100.5t-202 -58t-225 -18.5zM901 1014q-60 0 -100.5 -15t-67 -39.5t-41 -55.5t-21.5 -63t-8 -62.5t-1 -53.5q0 -18 0.5 -42t4 -50.5t11 -54t21.5 -51.5l234 485q-8 1 -16 1.5t-16 0.5zM1143 723q0 17 -0.5 39.5t-4 47.5t-10.5 50t-20 48
l-229 -480h22q60 0 101.5 15.5t68 41t41.5 57.5t21.5 64.5t8 63t1.5 53.5z" />
    <glyph glyph-name="ugrave" unicode="&#xf9;" 
d="M297 2208h490l339 -640h-425zM1650 991q-1 -30 -1 -58.5v-54.5v-155q0 -200 -55 -342.5t-149 -233.5t-220.5 -128t-268.5 -37q-164 0 -306.5 37t-248 128.5t-166 233.5t-60.5 342v268l-120 23v394h781v-394l-120 -23v-119v-48.5t0.5 -45.5t0.5 -36.5v-20.5q0 -23 1 -53.5
t8 -63t21.5 -64t41 -56.5t67 -40.5t100.5 -15.5t101.5 15.5t68 41t41.5 57.5t21.5 64.5t8 63t1.5 53.5v22.5t-0.5 36t-0.5 44v46.5v119l-120 23v394h694v-394z" />
    <glyph glyph-name="uacute" unicode="&#xfa;" 
d="M1125 1568h-425l339 640h490zM1650 991q-1 -30 -1 -58.5v-54.5v-155q0 -200 -55 -342.5t-149 -233.5t-220.5 -128t-268.5 -37q-164 0 -306.5 37t-248 128.5t-166 233.5t-60.5 342v268l-120 23v394h781v-394l-120 -23v-119v-48.5t0.5 -45.5t0.5 -36.5v-20.5q0 -23 1 -53.5
t8 -63t21.5 -64t41 -56.5t67 -40.5t100.5 -15.5t101.5 15.5t68 41t41.5 57.5t21.5 64.5t8 63t1.5 53.5v22.5t-0.5 36t-0.5 44v46.5v119l-120 23v394h694v-394z" />
    <glyph glyph-name="ucircumflex" unicode="&#xfb;" 
d="M329 1568l340 639h490l339 -639h-425l-159 383l-160 -383h-425zM1650 991q-1 -30 -1 -58.5v-54.5v-155q0 -200 -55 -342.5t-149 -233.5t-220.5 -128t-268.5 -37q-164 0 -306.5 37t-248 128.5t-166 233.5t-60.5 342v268l-120 23v394h781v-394l-120 -23v-119v-48.5
t0.5 -45.5t0.5 -36.5v-20.5q0 -23 1 -53.5t8 -63t21.5 -64t41 -56.5t67 -40.5t100.5 -15.5t101.5 15.5t68 41t41.5 57.5t21.5 64.5t8 63t1.5 53.5v22.5t-0.5 36t-0.5 44v46.5v119l-120 23v394h694v-394z" />
    <glyph glyph-name="udieresis" unicode="&#xfc;" 
d="M1073 1952h425v-384h-425v384zM754 1952v-384h-425v384h425zM1650 991q-1 -30 -1 -58.5v-54.5v-155q0 -200 -55 -342.5t-149 -233.5t-220.5 -128t-268.5 -37q-164 0 -306.5 37t-248 128.5t-166 233.5t-60.5 342v268l-120 23v394h781v-394l-120 -23v-119v-48.5t0.5 -45.5
t0.5 -36.5v-20.5q0 -23 1 -53.5t8 -63t21.5 -64t41 -56.5t67 -40.5t100.5 -15.5t101.5 15.5t68 41t41.5 57.5t21.5 64.5t8 63t1.5 53.5v22.5t-0.5 36t-0.5 44v46.5v119l-120 23v394h694v-394z" />
    <glyph glyph-name="yacute" unicode="&#xfd;" 
d="M1127 1568h-425l339 640h490zM461 0v397l120 30l-413 565l-152 22v394h803v-394l-94 -22l191 -289l190 289l-94 22v394h802v-394l-151 -22l-413 -565l121 -30v-397h-910z" />
    <glyph glyph-name="thorn" unicode="&#xfe;" horiz-adv-x="1675" 
d="M91 1536h722v-198h97q160 0 277.5 -14t200 -40t135 -64t82 -85.5t40 -104t10.5 -120.5q0 -66 -12.5 -124t-46.5 -106.5t-93.5 -87t-153 -65t-225.5 -40.5t-311 -14v-51l120 -23v-399h-842v399l120 23v697l-120 23v394zM813 726q55 0 99.5 6t76 26t48.5 58t17 103
q0 60 -17 95t-48.5 54t-76 24.5t-99.5 5.5v-372z" />
    <glyph glyph-name="ydieresis" unicode="&#xff;" 
d="M1075 1952h425v-384h-425v384zM756 1952v-384h-425v384h425zM461 0v397l120 30l-413 565l-152 22v394h803v-394l-94 -22l191 -289l190 289l-94 22v394h802v-394l-151 -22l-413 -565l121 -30v-397h-910z" />
    <glyph glyph-name="Abreve" unicode="&#x102;" horiz-adv-x="1777" 
d="M755 2126q0 -38 11.5 -66t30 -47.5t42.5 -29t49 -9.5t48.5 9.5t42.5 29t30.5 47.5t11.5 66h269q0 -112 -34.5 -195.5t-91 -139t-129 -83t-148.5 -27.5q-75 0 -147 27.5t-128.5 83t-91 139t-34.5 195.5h269zM1151 0l-54 258h-418l-53 -258h-569v504l123 25l295 1007h826
l296 -1007l123 -25v-504h-569zM765 601h246l-123 579z" />
    <glyph glyph-name="abreve" unicode="&#x103;" horiz-adv-x="1667" 
d="M700 2013q0 -38 11.5 -66t30 -47.5t42.5 -29t49 -9.5t48.5 9.5t42.5 29t30.5 47.5t11.5 66h269q0 -112 -34.5 -195.5t-91 -139t-129 -83t-148.5 -27.5q-75 0 -147 27.5t-128.5 83t-91 139t-34.5 195.5h269zM1080 0l-50 237h-393l-50 -237h-535v464l116 23l277 921h776
l279 -921l115 -23v-464h-535zM698 553h271l-136 553z" />
    <glyph glyph-name="Aogonek" unicode="&#x104;" horiz-adv-x="1777" 
d="M954 -412q0 -69 35 -100t101 -31q67 0 183 38v-317q-64 -21 -131 -32.5t-125 -11.5q-84 0 -154 22.5t-121 70t-79.5 120t-28.5 171.5q0 50 11 99t28.5 94.5t40.5 86.5t47 77q55 82 128 155h334q-38 -37 -72 -75t-63 -76q-25 -33 -49 -69.5t-43 -74t-30.5 -75t-11.5 -72.5
zM1151 0l-54 258h-418l-53 -258h-569v504l123 25l295 1007h826l296 -1007l123 -25v-504h-569zM765 601h246l-123 579z" />
    <glyph glyph-name="aogonek" unicode="&#x105;" horiz-adv-x="1667" 
d="M898 -412q0 -69 35 -100t101 -31q67 0 183 38v-317q-64 -21 -131 -32.5t-125 -11.5q-84 0 -154 22.5t-121 70t-79.5 120t-28.5 171.5q0 50 11 99t28.5 94.5t40.5 86.5t47 77q55 82 128 155h334q-38 -37 -72 -75t-63 -76q-25 -33 -49 -69.5t-43 -74t-30.5 -75t-11.5 -72.5
zM1080 0l-50 237h-393l-50 -237h-535v464l116 23l277 921h776l279 -921l115 -23v-464h-535zM698 553h271l-136 553z" />
    <glyph glyph-name="Cacute" unicode="&#x106;" horiz-adv-x="1636" 
d="M1133 1681h-425l339 640h490zM706 786q0 -86 22 -148t64.5 -102t104 -59t140.5 -19q94 0 222 23t283 71v-468q-161 -54 -313.5 -78t-300.5 -24q-181 0 -338.5 45t-274 145.5t-183.5 253.5t-67 360q0 202 61.5 348t174 240.5t270 139.5t349.5 45q118 0 212.5 -12
t170.5 -30t134.5 -40.5t104.5 -43.5v-460h-301q-51 72 -113.5 106t-128.5 34q-56 0 -108.5 -22t-93.5 -64t-66 -102.5t-25 -138.5z" />
    <glyph glyph-name="cacute" unicode="&#x107;" horiz-adv-x="1537" 
d="M1077 1568h-425l339 640h490zM664 723q0 -159 81 -231.5t230 -72.5q88 0 206.5 22t267.5 67v-435q-300 -91 -577 -91q-172 0 -320 40.5t-257 133.5t-171.5 234.5t-62.5 332.5q0 189 57.5 325.5t163 225t253.5 130.5t330 42q111 0 200.5 -11t161 -28t126 -37.5t96.5 -39.5
v-435h-283q-48 66 -106 97.5t-121 31.5q-52 0 -101.5 -20t-88 -58.5t-62 -94.5t-23.5 -128z" />
    <glyph glyph-name="Ccaron" unicode="&#x10c;" horiz-adv-x="1636" 
d="M760 2320l160 -383l159 383h425l-339 -639h-490l-340 639h425zM706 786q0 -86 22 -148t64.5 -102t104 -59t140.5 -19q94 0 222 23t283 71v-468q-161 -54 -313.5 -78t-300.5 -24q-181 0 -338.5 45t-274 145.5t-183.5 253.5t-67 360q0 202 61.5 348t174 240.5t270 139.5
t349.5 45q118 0 212.5 -12t170.5 -30t134.5 -40.5t104.5 -43.5v-460h-301q-51 72 -113.5 106t-128.5 34q-56 0 -108.5 -22t-93.5 -64t-66 -102.5t-25 -138.5z" />
    <glyph glyph-name="ccaron" unicode="&#x10d;" horiz-adv-x="1537" 
d="M706 2207l160 -383l159 383h425l-339 -639h-490l-340 639h425zM664 723q0 -159 81 -231.5t230 -72.5q88 0 206.5 22t267.5 67v-435q-300 -91 -577 -91q-172 0 -320 40.5t-257 133.5t-171.5 234.5t-62.5 332.5q0 189 57.5 325.5t163 225t253.5 130.5t330 42
q111 0 200.5 -11t161 -28t126 -37.5t96.5 -39.5v-435h-283q-48 66 -106 97.5t-121 31.5q-52 0 -101.5 -20t-88 -58.5t-62 -94.5t-23.5 -128z" />
    <glyph glyph-name="Dcaron" unicode="&#x10e;" horiz-adv-x="1959" 
d="M836 2320l160 -383l159 383h425l-339 -639h-490l-340 639h425zM1264 1536q145 -31 261 -89.5t197.5 -149.5t125 -217.5t43.5 -293.5q0 -221 -74 -371.5t-208.5 -242.5t-323.5 -132t-418 -40h-768v434l128 25v655l-128 25v397h1165zM965 459q107 0 165 23.5t84.5 66.5
t31 103t4.5 134t-4.5 134.5t-31 103.5t-84.5 66.5t-165 23.5h-98v-655h98z" />
    <glyph glyph-name="dcaron" unicode="&#x10f;" horiz-adv-x="1841" 
d="M1961 1446h640v-511q0 -127 -44 -213.5t-116 -140t-164 -76.5t-188 -23v324q19 1 41 7t41 20t32 38.5t13 62.5h-255v512zM1189 1408q136 -29 245 -82t185.5 -135.5t117.5 -198t41 -269.5q0 -135 -31.5 -241.5t-90 -187t-143.5 -136.5t-191.5 -91t-234 -51t-271.5 -16
h-722v399l120 23v603l-120 23v360h1095zM908 422q67 0 113 10t75.5 28t46 45t24 60t8.5 73t1 85t-1 85t-8.5 73.5t-24 60t-46 45t-75.5 28.5t-113 10h-92v-603h92z" />
    <glyph glyph-name="Dcroat" unicode="&#x110;" horiz-adv-x="1960" 
d="M1265 1536q145 -31 261 -89.5t197.5 -149.5t125 -217.5t43.5 -293.5q0 -221 -74 -371.5t-208.5 -242.5t-323.5 -132t-418 -40h-768v434l128 25v197h-128v257h128v201l-128 25v397h1165zM966 459q107 0 165 23.5t84.5 66.5t31 103t4.5 134t-4.5 134.5t-31 103.5
t-84.5 66.5t-165 23.5h-98v-201h136v-257h-136v-197h98z" />
    <glyph glyph-name="dcroat" unicode="&#x111;" horiz-adv-x="1842" 
d="M1190 1408q136 -29 245 -82t185.5 -135.5t117.5 -198t41 -269.5q0 -135 -31.5 -241.5t-90 -187t-143.5 -136.5t-191.5 -91t-234 -51t-271.5 -16h-722v399l120 23v176h-121v256h121v171l-120 23v360h1095zM909 422q67 0 113 10t75.5 28t46 45t24 60t8.5 73t1 85t-1 85
t-8.5 73.5t-24 60t-46 45t-75.5 28.5t-113 10h-92v-171h128v-256h-128v-176h92z" />
    <glyph glyph-name="Eogonek" unicode="&#x118;" horiz-adv-x="1493" 
d="M836 -412q0 -69 35 -100t101 -31q67 0 183 38v-317q-64 -21 -131 -32.5t-125 -11.5q-84 0 -154 22.5t-121 70t-79.5 120t-28.5 171.5q0 50 11 99t28.5 94.5t40.5 86.5t47 77q55 82 128 155h334q-38 -37 -72 -75t-63 -76q-25 -33 -49 -69.5t-43 -74t-30.5 -75t-11.5 -72.5
zM870 384q68 0 128 11.5t110.5 29.5t91.5 41t72 46h167v-512h-1337v434l128 25v616l-128 25v436h1337v-512h-161q-32 22 -74 45t-93.5 41.5t-111.5 30t-129 11.5v-273l300 65v-354l-300 65v-271z" />
    <glyph glyph-name="eogonek" unicode="&#x119;" horiz-adv-x="1395" 
d="M612 -412q0 -69 35 -100t101 -31q67 0 183 38v-317q-64 -21 -131 -32.5t-125 -11.5q-84 0 -154 22.5t-121 70t-79.5 120t-28.5 171.5q0 50 11 99t28.5 94.5t40.5 86.5t47 77q55 82 128 155h334q-38 -37 -72 -75t-63 -76q-25 -33 -49 -69.5t-43 -74t-30.5 -75t-11.5 -72.5
zM818 789l277 59v-285l-277 60v-221q60 0 116 8.5t104 23.5t88 35t69 43h137v-512h-1236v399l120 23v567l-120 23v396h1236v-512h-137q-29 22 -69 42t-88 35t-104 24t-116 9v-217z" />
    <glyph glyph-name="Ecaron" unicode="&#x11a;" horiz-adv-x="1493" 
d="M611 2320l160 -383l159 383h425l-339 -639h-490l-340 639h425zM870 384q68 0 128 11.5t110.5 29.5t91.5 41t72 46h167v-512h-1337v434l128 25v616l-128 25v436h1337v-512h-161q-32 22 -74 45t-93.5 41.5t-111.5 30t-129 11.5v-273l300 65v-354l-300 65v-271z" />
    <glyph glyph-name="ecaron" unicode="&#x11b;" horiz-adv-x="1395" 
d="M554 2207l160 -383l159 383h425l-339 -639h-490l-340 639h425zM818 789l277 59v-285l-277 60v-221q60 0 116 8.5t104 23.5t88 35t69 43h137v-512h-1236v399l120 23v567l-120 23v396h1236v-512h-137q-29 22 -69 42t-88 35t-104 24t-116 9v-217z" />
    <glyph glyph-name="Gbreve" unicode="&#x11e;" horiz-adv-x="1640" 
d="M747 2126q0 -38 11.5 -66t30 -47.5t42.5 -29t49 -9.5t48.5 9.5t42.5 29t30.5 47.5t11.5 66h269q0 -112 -34.5 -195.5t-91 -139t-129 -83t-148.5 -27.5q-75 0 -147 27.5t-128.5 83t-91 139t-34.5 195.5h269zM65 786q0 209 60.5 353t172.5 236q107 88 251 136t331 48
q129 0 229 -11t178.5 -29t140 -41t114.5 -48v-457h-301q-51 72 -113.5 106t-128.5 34q-56 0 -108.5 -22t-93.5 -64t-66 -102.5t-25 -138.5q0 -173 78.5 -253t223.5 -80q36 0 72.5 4t73.5 12v121h-192v274h622v-730q-79 -33 -167.5 -62.5t-177 -51t-173.5 -30t-157 -8.5
q-118 0 -226 17t-201.5 61t-170.5 110.5t-131.5 157t-84.5 205t-30 253.5z" />
    <glyph glyph-name="gbreve" unicode="&#x11f;" horiz-adv-x="1539" 
d="M732 2013q0 -38 11.5 -66t30 -47.5t42.5 -29t49 -9.5t48.5 9.5t42.5 29t30.5 47.5t11.5 66h269q0 -112 -34.5 -195.5t-91 -139t-129 -83t-148.5 -27.5q-75 0 -147 27.5t-128.5 83t-91 139t-34.5 195.5h269zM61 723q0 188 57 324.5t162 225t253.5 131t331.5 42.5
q111 0 200.5 -11t161 -28t126 -37.5t96.5 -39.5v-435h-283q-23 33 -45.5 57.5t-48.5 40t-58 23.5t-75 8q-52 0 -101.5 -15.5t-88 -51t-62 -93t-23.5 -141.5q0 -98 19 -160.5t55 -99t88.5 -50.5t120.5 -14q36 0 74.5 5t83.5 19v114h-201v246h585v-664q-74 -31 -157 -58
t-166.5 -47t-163.5 -26t-148 -6q-167 0 -312 40t-252 133t-168 234.5t-61 333.5z" />
    <glyph glyph-name="Idotaccent" unicode="&#x130;" horiz-adv-x="1100" 
d="M230 2193h640v-512h-640v512zM102 1536h896v-434l-128 -25v-618l128 -25v-434h-896v434l128 25v618l-128 25v434z" />
    <glyph glyph-name="dotlessi" unicode="&#x131;" horiz-adv-x="1036" 
d="M97 1408h842v-394l-120 -23v-569l120 -23v-399h-842v399l120 23v569l-120 23v394z" />
    <glyph glyph-name="Lacute" unicode="&#x139;" horiz-adv-x="1356" 
d="M925 1681h-425l339 640h490zM870 384q48 0 90 11.5t78 29.5t65.5 41t51.5 46h167v-512h-1220v434l128 25v618l-128 25v434h896v-434l-128 -25v-693z" />
    <glyph glyph-name="lacute" unicode="&#x13a;" horiz-adv-x="1279" 
d="M731 1568h-425l339 640h490zM818 384q42 0 80 11.5t70.5 30t59 41t46.5 45.5h167v-512h-1144v399l120 23v569l-120 23v394h842v-394l-121 -23v-607z" />
    <glyph glyph-name="Lcaron" unicode="&#x13d;" horiz-adv-x="1356" 
d="M1505 1559h640v-511q0 -127 -44 -213.5t-116 -140t-164 -76.5t-188 -23v324q19 1 41 7t41 20t32 38.5t13 62.5h-255v512zM870 384q48 0 90 11.5t78 29.5t65.5 41t51.5 46h167v-512h-1220v434l128 25v618l-128 25v434h896v-434l-128 -25v-693z" />
    <glyph glyph-name="lcaron" unicode="&#x13e;" horiz-adv-x="1279" 
d="M1122 1446h640v-511q0 -127 -44 -213.5t-116 -140t-164 -76.5t-188 -23v324q19 1 41 7t41 20t32 38.5t13 62.5h-255v512zM818 384q42 0 80 11.5t70.5 30t59 41t46.5 45.5h167v-512h-1144v399l120 23v569l-120 23v394h842v-394l-121 -23v-607z" />
    <glyph glyph-name="Lslash" unicode="&#x141;" horiz-adv-x="1356" 
d="M870 896h172v-256h-172v-256q48 0 90 11.5t78 29.5t65.5 41t51.5 46h167v-512h-1220v434l128 25v181h-128v256h128v181l-128 25v434h896v-434l-128 -25v-181z" />
    <glyph glyph-name="lslash" unicode="&#x142;" horiz-adv-x="1279" 
d="M818 896h89v-256h-89v-256q42 0 80 11.5t70.5 30t59 41t46.5 45.5h167v-512h-1144v399l120 23v218h-120v256h120v95l-120 23v399h842v-399l-121 -23v-95z" />
    <glyph glyph-name="Nacute" unicode="&#x143;" horiz-adv-x="1996" 
d="M1211 1681h-425l339 640h490zM614 749v-290l128 -24v-435h-640v434l128 25v618l-128 25v434h768l512 -787v326l-128 27v434h640v-434l-128 -25v-618l128 -25v-434h-769z" />
    <glyph glyph-name="nacute" unicode="&#x144;" horiz-adv-x="1878" 
d="M1151 1568h-425l339 640h490zM578 739v-317l121 -22v-400h-602v399l120 23v569l-120 23v394h722l481 -759v340l-120 25v394h601v-394l-120 -23v-569l120 -23v-399h-722z" />
    <glyph glyph-name="Ncaron" unicode="&#x147;" horiz-adv-x="1996" 
d="M838 2320l160 -383l159 383h425l-339 -639h-490l-340 639h425zM614 749v-290l128 -24v-435h-640v434l128 25v618l-128 25v434h768l512 -787v326l-128 27v434h640v-434l-128 -25v-618l128 -25v-434h-769z" />
    <glyph glyph-name="ncaron" unicode="&#x148;" horiz-adv-x="1878" 
d="M780 2207l160 -383l159 383h425l-339 -639h-490l-340 639h425zM578 739v-317l121 -22v-400h-602v399l120 23v569l-120 23v394h722l481 -759v340l-120 25v394h601v-394l-120 -23v-569l120 -23v-399h-722z" />
    <glyph glyph-name="Ohungarumlaut" unicode="&#x150;" horiz-adv-x="1920" 
d="M1495 1681h-435l405 640h490zM827 1681h-405l249 640h490zM959 -18q-122 0 -235.5 15t-213 56t-181.5 105.5t-141 155t-91.5 208t-32.5 264.5q0 138 32 249t90 197t139.5 148t181 101.5t214 58.5t238.5 19t239 -19t215 -59t181.5 -102t139.5 -148t90 -196.5t32 -248.5
q0 -216 -70.5 -370.5t-192.5 -252.5t-285 -139.5t-349 -41.5zM959 1102q-64 0 -107.5 -16.5t-72 -43.5t-43.5 -61t-22.5 -69t-8.5 -68t-1 -58t1 -58t8.5 -68.5t22.5 -70.5t43.5 -62.5t72 -44.5t107.5 -17t107.5 17t72.5 44.5t44.5 62.5t22.5 70.5t8.5 68.5t1.5 58t-1.5 58
t-8.5 68t-22.5 69t-44.5 61t-72.5 43.5t-107.5 16.5z" />
    <glyph glyph-name="ohungarumlaut" unicode="&#x151;" horiz-adv-x="1803" 
d="M1437 1568h-435l405 640h490zM769 1568h-405l249 640h490zM901 -18q-176 0 -329.5 37.5t-267 129t-179 233.5t-65.5 341q0 195 65.5 332.5t179.5 224t267 126.5t329 40q175 0 328.5 -40t268 -126.5t180.5 -224t66 -332.5q0 -132 -30 -239.5t-84.5 -191t-131 -144
t-170.5 -100t-202 -53t-225 -13.5zM901 1020q-59 0 -99.5 -15t-67 -39t-41.5 -55t-21.5 -63.5t-8 -64t-1.5 -55.5q0 -23 1 -54.5t7 -66t20 -68.5t40.5 -61t68 -43.5t102.5 -16.5q60 0 101.5 16t68 42.5t41.5 59.5t21.5 66.5t8 65.5t1.5 55q0 24 -1.5 55.5t-8 64.5
t-21.5 64.5t-41.5 56.5t-68 40.5t-101.5 15.5z" />
    <glyph glyph-name="OE" unicode="&#x152;" horiz-adv-x="2499" 
d="M2445 0h-1159q-148 -40 -327 -40q-125 0 -240 20.5t-214.5 63t-180.5 108.5t-139 158t-89.5 210.5t-31.5 265.5q0 142 31.5 255.5t89.5 201.5t139.5 151t181 103.5t214 59.5t239.5 19q183 0 336 -40h1156v-552q-62 25 -150 45q-75 17 -185 31.5t-260 14.5v-196l294 65
v-354l-294 65v-196q117 0 208 7t161.5 18.5t124 26t95.5 29.5v-540zM959 1102q-64 0 -107.5 -16.5t-72 -43.5t-43.5 -61t-22.5 -69t-8.5 -68t-1 -58t1 -58t8.5 -68.5t22.5 -70.5t43.5 -62.5t72 -44.5t107.5 -17q52 0 91.5 2t69.5 6t53 9t43 10v568q-17 7 -39.5 14.5
t-53 13.5t-71 10t-93.5 4z" />
    <glyph glyph-name="oe" unicode="&#x153;" horiz-adv-x="2348" 
d="M1742 789l276 59v-285l-276 60v-221q62 0 119 8.5t106.5 23.5t90.5 35t71 43h167v-512h-1087q-141 -37 -308 -37q-117 0 -225 18.5t-201.5 58t-170 100.5t-131 145.5t-84 193t-29.5 244.5q0 196 65.5 334.5t179.5 225.5t267 127t329 40q180 0 335 -42h1060v-512h-167
q-30 22 -71 42t-90.5 35t-106.5 24t-119 9v-217zM901 1014q-60 0 -100.5 -15t-67 -39.5t-41 -55.5t-21.5 -63t-8 -62.5t-1 -53.5q0 -22 1 -53t7.5 -64t20.5 -65t40.5 -57.5t67.5 -41.5t102 -16q93 0 150 9.5t89 20.5v529q-18 5 -40.5 10t-51.5 8.5t-65 6t-82 2.5z" />
    <glyph glyph-name="Racute" unicode="&#x154;" horiz-adv-x="1840" 
d="M750 1681h-425l339 640h490zM1765 0h-636l-62 121t-62 133t-56 143t-44 152h-35v-549h-768v434l128 25v618l-128 25v434h871q173 0 299 -16t214 -45.5t142.5 -72t85 -96t41 -117t10.5 -134.5q0 -72 -13.5 -130.5t-47.5 -107.5t-93 -89.5t-150 -76.5q19 -40 57 -93.5
t82 -109l88.5 -108l76.5 -89.5v-251zM870 844q58 0 105.5 5t81 23t51.5 53t18 94q0 58 -18 92.5t-51.5 53.5t-81 25t-105.5 6v-352z" />
    <glyph glyph-name="racute" unicode="&#x155;" horiz-adv-x="1732" 
d="M1091 1568h-425l339 640h490zM1660 0h-598l-58 110.5t-58 122.5t-52.5 132t-41.5 140h-33v-505h-722v399l120 23v569l-120 23v394h819q163 0 281.5 -14t201 -41t133.5 -65.5t79.5 -87t38.5 -106.5t10 -123q0 -66 -12.5 -120t-44.5 -99t-87.5 -82.5t-141.5 -70.5
q18 -36 53.5 -85.5t77.5 -101l83.5 -99.5l71.5 -82v-231zM819 776q55 0 99.5 5.5t76 24t48.5 54.5t17 97q0 60 -17 96t-48.5 55.5t-76 25.5t-99.5 6v-364z" />
    <glyph glyph-name="Rcaron" unicode="&#x158;" horiz-adv-x="1840" 
d="M378 2320l160 -383l159 383h425l-339 -639h-490l-340 639h425zM1765 0h-636l-62 121t-62 133t-56 143t-44 152h-35v-549h-768v434l128 25v618l-128 25v434h871q173 0 299 -16t214 -45.5t142.5 -72t85 -96t41 -117t10.5 -134.5q0 -72 -13.5 -130.5t-47.5 -107.5t-93 -89.5
t-150 -76.5q19 -40 57 -93.5t82 -109l88.5 -108l76.5 -89.5v-251zM870 844q58 0 105.5 5t81 23t51.5 53t18 94q0 58 -18 92.5t-51.5 53.5t-81 25t-105.5 6v-352z" />
    <glyph glyph-name="rcaron" unicode="&#x159;" horiz-adv-x="1732" 
d="M719 2207l160 -383l159 383h425l-339 -639h-490l-340 639h425zM1660 0h-598l-58 110.5t-58 122.5t-52.5 132t-41.5 140h-33v-505h-722v399l120 23v569l-120 23v394h819q163 0 281.5 -14t201 -41t133.5 -65.5t79.5 -87t38.5 -106.5t10 -123q0 -66 -12.5 -120t-44.5 -99
t-87.5 -82.5t-141.5 -70.5q18 -36 53.5 -85.5t77.5 -101l83.5 -99.5l71.5 -82v-231zM819 776q55 0 99.5 5.5t76 24t48.5 54.5t17 97q0 60 -17 96t-48.5 55.5t-76 25.5t-99.5 6v-364z" />
    <glyph glyph-name="Sacute" unicode="&#x15a;" horiz-adv-x="1495" 
d="M975 1681h-425l339 640h490zM1418 482q-1 -99 -28.5 -175.5t-76.5 -132t-115 -94t-142 -62t-159.5 -30t-167.5 -6.5q-152 0 -267 12q-66 8 -197 44q-107 29 -168 61v395h301q52 -72 117.5 -106t134.5 -34q18 0 40 3t41.5 17t33 44t13.5 84q-86 8 -170.5 23t-161.5 41
t-143.5 65.5t-115 95.5t-76 131.5t-27.5 174.5q0 106 28 186.5t76.5 139t114 97t141 61.5t157 29t162.5 6q118 0 212.5 -8.5t170.5 -26.5t134.5 -40.5t104.5 -43.5v-390h-301q-51 72 -113.5 106t-128.5 34q-18 0 -41 -4.5t-43 -21t-34 -48t-14 -85.5q175 -6 308 -38
t221.5 -96.5t133.5 -165t45 -242.5z" />
    <glyph glyph-name="sacute" unicode="&#x15b;" horiz-adv-x="1387" 
d="M919 1568h-425l339 640h490zM1322 443q0 -93 -26.5 -164.5t-72 -124t-108 -87.5t-134.5 -56.5t-150.5 -25t-156.5 -3.5q-108 0 -195 5t-155.5 22t-121 37.5t-92.5 40.5v347h283q42 -66 96 -97t111 -31q17 0 38 3t39 19t30.5 49.5t12.5 94.5q-81 7 -160.5 20.5t-152 36.5
t-134.5 58.5t-107.5 86t-71.5 119t-26 157.5q0 102 26 178.5t71 131.5t106.5 91t132.5 57t148 29.5t154 8.5q109 0 195.5 -11t155 -28t121 -37.5t93.5 -39.5v-350h-303q-38 72 -87 105t-100 33q-17 0 -39 -5.5t-41 -24.5t-32 -56t-13 -100q165 -6 289.5 -35t208.5 -86.5
t126 -148t42 -219.5z" />
    <glyph glyph-name="Scedilla" unicode="&#x15e;" horiz-adv-x="1495" 
d="M958 -558q0 31 -10 55.5t-27 41t-38.5 25.5t-43.5 9q-27 0 -52.5 -14t-45.5 -43h-122v496h221v-257h11q5 0 10 0.5t10 0.5q79 0 143 -18.5t109.5 -56.5t70 -97.5t24.5 -141.5q0 -84 -27 -145.5t-74 -102t-111 -60t-139 -19.5q-58 0 -121 11t-127 33v190
q63 -19 115.5 -28.5t87.5 -9.5q66 0 101 31t35 100zM1418 482q-1 -99 -28.5 -175.5t-76.5 -132t-115 -94t-142 -62t-159.5 -30t-167.5 -6.5q-152 0 -267 12q-66 8 -197 44q-107 29 -168 61v395h301q52 -72 117.5 -106t134.5 -34q18 0 40 3t41.5 17t33 44t13.5 84
q-86 8 -170.5 23t-161.5 41t-143.5 65.5t-115 95.5t-76 131.5t-27.5 174.5q0 106 28 186.5t76.5 139t114 97t141 61.5t157 29t162.5 6q118 0 212.5 -8.5t170.5 -26.5t134.5 -40.5t104.5 -43.5v-390h-301q-51 72 -113.5 106t-128.5 34q-18 0 -41 -4.5t-43 -21t-34 -48
t-14 -85.5q175 -6 308 -38t221.5 -96.5t133.5 -165t45 -242.5z" />
    <glyph glyph-name="scedilla" unicode="&#x15f;" horiz-adv-x="1387" 
d="M902 -558q0 31 -10 55.5t-27 41t-38.5 25.5t-43.5 9q-27 0 -52.5 -14t-45.5 -43h-122v496h221v-257h11q5 0 10 0.5t10 0.5q79 0 143 -18.5t109.5 -56.5t70 -97.5t24.5 -141.5q0 -84 -27 -145.5t-74 -102t-111 -60t-139 -19.5q-58 0 -121 11t-127 33v190
q63 -19 115.5 -28.5t87.5 -9.5q66 0 101 31t35 100zM1322 443q0 -93 -26.5 -164.5t-72 -124t-108 -87.5t-134.5 -56.5t-150.5 -25t-156.5 -3.5q-108 0 -195 5t-155.5 22t-121 37.5t-92.5 40.5v347h283q42 -66 96 -97t111 -31q17 0 38 3t39 19t30.5 49.5t12.5 94.5
q-81 7 -160.5 20.5t-152 36.5t-134.5 58.5t-107.5 86t-71.5 119t-26 157.5q0 102 26 178.5t71 131.5t106.5 91t132.5 57t148 29.5t154 8.5q109 0 195.5 -11t155 -28t121 -37.5t93.5 -39.5v-350h-303q-38 72 -87 105t-100 33q-17 0 -39 -5.5t-41 -24.5t-32 -56t-13 -100
q165 -6 289.5 -35t208.5 -86.5t126 -148t42 -219.5z" />
    <glyph glyph-name="Scaron" unicode="&#x160;" horiz-adv-x="1495" 
d="M604 2320l160 -383l159 383h425l-339 -639h-490l-340 639h425zM1418 482q-1 -99 -28.5 -175.5t-76.5 -132t-115 -94t-142 -62t-159.5 -30t-167.5 -6.5q-152 0 -267 12q-66 8 -197 44q-107 29 -168 61v395h301q52 -72 117.5 -106t134.5 -34q18 0 40 3t41.5 17t33 44
t13.5 84q-86 8 -170.5 23t-161.5 41t-143.5 65.5t-115 95.5t-76 131.5t-27.5 174.5q0 106 28 186.5t76.5 139t114 97t141 61.5t157 29t162.5 6q118 0 212.5 -8.5t170.5 -26.5t134.5 -40.5t104.5 -43.5v-390h-301q-51 72 -113.5 106t-128.5 34q-18 0 -41 -4.5t-43 -21
t-34 -48t-14 -85.5q175 -6 308 -38t221.5 -96.5t133.5 -165t45 -242.5z" />
    <glyph glyph-name="scaron" unicode="&#x161;" horiz-adv-x="1387" 
d="M546 2207l160 -383l159 383h425l-339 -639h-490l-340 639h425zM1322 443q0 -93 -26.5 -164.5t-72 -124t-108 -87.5t-134.5 -56.5t-150.5 -25t-156.5 -3.5q-108 0 -195 5t-155.5 22t-121 37.5t-92.5 40.5v347h283q42 -66 96 -97t111 -31q17 0 38 3t39 19t30.5 49.5
t12.5 94.5q-81 7 -160.5 20.5t-152 36.5t-134.5 58.5t-107.5 86t-71.5 119t-26 157.5q0 102 26 178.5t71 131.5t106.5 91t132.5 57t148 29.5t154 8.5q109 0 195.5 -11t155 -28t121 -37.5t93.5 -39.5v-350h-303q-38 72 -87 105t-100 33q-17 0 -39 -5.5t-41 -24.5t-32 -56
t-13 -100q165 -6 289.5 -35t208.5 -86.5t126 -148t42 -219.5z" />
    <glyph glyph-name="Tcommaaccent" unicode="&#x162;" horiz-adv-x="1480" 
d="M968 -540q0 31 -10 55.5t-27 41t-38.5 25.5t-43.5 9q-27 0 -52.5 -14t-45.5 -43h-122v496h221v-257h11q5 0 10 0.5t10 0.5q79 0 143 -18.5t109.5 -56.5t70 -97.5t24.5 -141.5q0 -84 -27 -145.5t-74 -102t-111 -60t-139 -19.5q-58 0 -121 11t-127 33v190
q63 -19 115.5 -28.5t87.5 -9.5q66 0 101 31t35 100zM1444 1536v-512h-168q-17 22 -39 45t-49 41.5t-59 30t-69 11.5v-693l128 -25v-434h-896v434l128 25v693q-37 0 -69 -11.5t-59 -30t-49 -41.5t-39 -45h-168v512h1408z" />
    <glyph glyph-name="tcommaaccent" unicode="&#x163;" horiz-adv-x="1444" 
d="M950 -540q0 31 -10 55.5t-27 41t-38.5 25.5t-43.5 9q-27 0 -52.5 -14t-45.5 -43h-122v496h221v-257h11q5 0 10 0.5t10 0.5q79 0 143 -18.5t109.5 -56.5t70 -97.5t24.5 -141.5q0 -84 -27 -145.5t-74 -102t-111 -60t-139 -19.5q-58 0 -121 11t-127 33v190
q63 -19 115.5 -28.5t87.5 -9.5q66 0 101 31t35 100zM421 1036q-52 0 -92 -14t-67 -35t-41 -45.5t-14 -45.5h-167v512h1364v-512h-167q0 21 -14 45.5t-41 45.5t-67 35t-92 14v-614l120 -23v-399h-842v399l120 23v614z" />
    <glyph glyph-name="Tcaron" unicode="&#x164;" horiz-adv-x="1480" 
d="M580 2320l160 -383l159 383h425l-339 -639h-490l-340 639h425zM1444 1536v-512h-168q-17 22 -39 45t-49 41.5t-59 30t-69 11.5v-693l128 -25v-434h-896v434l128 25v693q-37 0 -69 -11.5t-59 -30t-49 -41.5t-39 -45h-168v512h1408z" />
    <glyph glyph-name="tcaron" unicode="&#x165;" horiz-adv-x="1444" 
d="M1587 1446h640v-511q0 -127 -44 -213.5t-116 -140t-164 -76.5t-188 -23v324q19 1 41 7t41 20t32 38.5t13 62.5h-255v512zM421 1036q-52 0 -92 -14t-67 -35t-41 -45.5t-14 -45.5h-167v512h1364v-512h-167q0 21 -14 45.5t-41 45.5t-67 35t-92 14v-614l120 -23v-399h-842
v399l120 23v614z" />
    <glyph glyph-name="Uring" unicode="&#x16e;" horiz-adv-x="1950" 
d="M1375 2071q0 -98 -34.5 -171t-91 -121.5t-129 -73t-148.5 -24.5q-75 0 -147 24.5t-128.5 73t-91 121.5t-34.5 171q0 96 34.5 168.5t90.5 121t128.5 72.5t147.5 24t147.5 -24t129.5 -72.5t91.5 -121t34.5 -168.5zM1146 2066q0 48 -15 84.5t-39.5 61t-55.5 37t-64 12.5
q-32 0 -63 -12t-55 -36.5t-39 -61t-15 -85.5q0 -50 15 -86.5t39 -61.5t55 -37t64 -12t64 12.5t55 37t39 61.5t15 86zM1758 1077q-1 -32 -1 -62.5v-59.5v-169q0 -212 -57.5 -365.5t-157 -253t-232.5 -142.5t-283 -43q-117 0 -224.5 15.5t-200.5 58t-169 108t-130.5 156
t-84 206.5t-29.5 260v291l-128 25v434h831v-434l-128 -25v-129v-50.5t0.5 -47.5t0.5 -39v-25q0 -25 1 -58t8.5 -68.5t22.5 -70.5t43.5 -62.5t72 -44.5t107.5 -17t107.5 17t72.5 44.5t44.5 62.5t22.5 70.5t8.5 68.5t1.5 58v25t-0.5 39t-0.5 47.5v50.5v129l-128 25v434h738
v-434z" />
    <glyph glyph-name="uring" unicode="&#x16f;" 
d="M1315 1958q0 -98 -34.5 -171t-91 -121.5t-129 -73t-148.5 -24.5q-75 0 -147 24.5t-128.5 73t-91 121.5t-34.5 171q0 96 34.5 168.5t90.5 121t128.5 72.5t147.5 24t147.5 -24t129.5 -72.5t91.5 -121t34.5 -168.5zM1086 1953q0 48 -15 84.5t-39.5 61t-55.5 37t-64 12.5
q-32 0 -63 -12t-55 -36.5t-39 -61t-15 -85.5q0 -50 15 -86.5t39 -61.5t55 -37t64 -12t64 12.5t55 37t39 61.5t15 86zM1650 991q-1 -30 -1 -58.5v-54.5v-155q0 -200 -55 -342.5t-149 -233.5t-220.5 -128t-268.5 -37q-164 0 -306.5 37t-248 128.5t-166 233.5t-60.5 342v268
l-120 23v394h781v-394l-120 -23v-119v-48.5t0.5 -45.5t0.5 -36.5v-20.5q0 -23 1 -53.5t8 -63t21.5 -64t41 -56.5t67 -40.5t100.5 -15.5t101.5 15.5t68 41t41.5 57.5t21.5 64.5t8 63t1.5 53.5v22.5t-0.5 36t-0.5 44v46.5v119l-120 23v394h694v-394z" />
    <glyph glyph-name="Uhungarumlaut" unicode="&#x170;" horiz-adv-x="1950" 
d="M1510 1681h-435l405 640h490zM842 1681h-405l249 640h490zM1758 1077q-1 -32 -1 -62.5v-59.5v-169q0 -212 -57.5 -365.5t-157 -253t-232.5 -142.5t-283 -43q-117 0 -224.5 15.5t-200.5 58t-169 108t-130.5 156t-84 206.5t-29.5 260v291l-128 25v434h831v-434l-128 -25
v-129v-50.5t0.5 -47.5t0.5 -39v-25q0 -25 1 -58t8.5 -68.5t22.5 -70.5t43.5 -62.5t72 -44.5t107.5 -17t107.5 17t72.5 44.5t44.5 62.5t22.5 70.5t8.5 68.5t1.5 58v25t-0.5 39t-0.5 47.5v50.5v129l-128 25v434h738v-434z" />
    <glyph glyph-name="uhungarumlaut" unicode="&#x171;" 
d="M1449 1568h-435l405 640h490zM781 1568h-405l249 640h490zM1650 991q-1 -30 -1 -58.5v-54.5v-155q0 -200 -55 -342.5t-149 -233.5t-220.5 -128t-268.5 -37q-164 0 -306.5 37t-248 128.5t-166 233.5t-60.5 342v268l-120 23v394h781v-394l-120 -23v-119v-48.5t0.5 -45.5
t0.5 -36.5v-20.5q0 -23 1 -53.5t8 -63t21.5 -64t41 -56.5t67 -40.5t100.5 -15.5t101.5 15.5t68 41t41.5 57.5t21.5 64.5t8 63t1.5 53.5v22.5t-0.5 36t-0.5 44v46.5v119l-120 23v394h694v-394z" />
    <glyph glyph-name="Ydieresis" unicode="&#x178;" horiz-adv-x="1943" 
d="M1131 2065h425v-384h-425v384zM812 2065v-384h-425v384h425zM488 0v432l128 32l-439 614l-162 24v434h854v-434l-100 -24l203 -314l203 314l-100 24v434h853v-434l-161 -24l-439 -614l128 -32v-432h-968z" />
    <glyph glyph-name="Zacute" unicode="&#x179;" horiz-adv-x="1344" 
d="M893 1681h-425l339 640h490zM27 0v384l564 768q-57 0 -107 -11.5t-92.5 -30t-77.5 -41.5t-61 -45h-168v512h1190v-414l-504 -720q25 -3 49 -3q47 0 89.5 10t78.5 26.5t66 36.5t53 40h168v-512h-1248z" />
    <glyph glyph-name="zacute" unicode="&#x17a;" horiz-adv-x="1241" 
d="M841 1568h-425l339 640h490zM30 0v352l517 703q-53 0 -99 -10.5t-85 -27.5t-70.5 -37.5t-55.5 -41.5h-154v470h1090v-380l-461 -660q22 -3 44 -3q43 0 82 9.5t72 24.5t60.5 33.5t48.5 36.5h154v-469h-1143z" />
    <glyph glyph-name="Zdotaccent" unicode="&#x17b;" horiz-adv-x="1344" 
d="M360 2193h640v-512h-640v512zM27 0v384l564 768q-57 0 -107 -11.5t-92.5 -30t-77.5 -41.5t-61 -45h-168v512h1190v-414l-504 -720q25 -3 49 -3q47 0 89.5 10t78.5 26.5t66 36.5t53 40h168v-512h-1248z" />
    <glyph glyph-name="zdotaccent" unicode="&#x17c;" horiz-adv-x="1241" 
d="M308 2080h640v-512h-640v512zM30 0v352l517 703q-53 0 -99 -10.5t-85 -27.5t-70.5 -37.5t-55.5 -41.5h-154v470h1090v-380l-461 -660q22 -3 44 -3q43 0 82 9.5t72 24.5t60.5 33.5t48.5 36.5h154v-469h-1143z" />
    <glyph glyph-name="Zcaron" unicode="&#x17d;" horiz-adv-x="1344" 
d="M520 2320l160 -383l159 383h425l-339 -639h-490l-340 639h425zM27 0v384l564 768q-57 0 -107 -11.5t-92.5 -30t-77.5 -41.5t-61 -45h-168v512h1190v-414l-504 -720q25 -3 49 -3q47 0 89.5 10t78.5 26.5t66 36.5t53 40h168v-512h-1248z" />
    <glyph glyph-name="zcaron" unicode="&#x17e;" horiz-adv-x="1241" 
d="M468 2207l160 -383l159 383h425l-339 -639h-490l-340 639h425zM30 0v352l517 703q-53 0 -99 -10.5t-85 -27.5t-70.5 -37.5t-55.5 -41.5h-154v470h1090v-380l-461 -660q22 -3 44 -3q43 0 82 9.5t72 24.5t60.5 33.5t48.5 36.5h154v-469h-1143z" />
    <glyph glyph-name="florin" unicode="&#x192;" horiz-adv-x="1378" 
d="M408 808h-232l20 187h212q2 85 13 163t35.5 146t65 123.5t101.5 95t144.5 61t194.5 21.5q87 0 165 -21.5t136 -72.5t92 -136t34 -211q0 -8 -0.5 -16.5t-0.5 -16.5h-317q3 8 5.5 25.5t2.5 37.5q0 16 -2 32t-7 29t-13 21t-20 8q-15 0 -28 -29.5t-13 -104.5v-155h249
l-20 -187h-229v-396q0 -111 -35 -209.5t-103 -172t-168.5 -116t-231.5 -42.5q-87 0 -168.5 23.5t-144.5 69t-101 112t-38 152.5q0 61 21 132h314q-1 -6 -3 -26t-2 -43q0 -14 1.5 -28t5 -25t10 -18t16.5 -7q7 0 14 9.5t12.5 32t9 59.5t3.5 93v400z" />
    <glyph glyph-name="uni0200" unicode="&#x200;" horiz-adv-x="1777" 
d="M647 2321h490l239 -640h-425zM-4 2321h490l339 -640h-425zM1151 0l-54 258h-418l-53 -258h-569v504l123 25l295 1007h826l296 -1007l123 -25v-504h-569zM765 601h246l-123 579z" />
    <glyph glyph-name="uni0201" unicode="&#x201;" horiz-adv-x="1667" 
d="M592 2208h490l239 -640h-425zM-59 2208h490l339 -640h-425zM1080 0l-50 237h-393l-50 -237h-535v464l116 23l277 921h776l279 -921l115 -23v-464h-535zM698 553h271l-136 553z" />
    <glyph glyph-name="uni0202" unicode="&#x202;" horiz-adv-x="1777" 
d="M486 1681q0 112 34.5 195.5t91 139t128.5 83t147 27.5q76 0 148.5 -27.5t129 -83t91 -139t34.5 -195.5h-269q0 37 -11.5 65.5t-30.5 48t-42.5 29t-48.5 9.5t-49 -9.5t-42.5 -29t-30 -48t-11.5 -65.5h-269zM1151 0l-54 258h-418l-53 -258h-569v504l123 25l295 1007h826
l296 -1007l123 -25v-504h-569zM765 601h246l-123 579z" />
    <glyph glyph-name="uni0203" unicode="&#x203;" horiz-adv-x="1667" 
d="M431 1568q0 112 34.5 195.5t91 139t128.5 83t147 27.5q76 0 148.5 -27.5t129 -83t91 -139t34.5 -195.5h-269q0 37 -11.5 65.5t-30.5 48t-42.5 29t-48.5 9.5t-49 -9.5t-42.5 -29t-30 -48t-11.5 -65.5h-269zM1080 0l-50 237h-393l-50 -237h-535v464l116 23l277 921h776
l279 -921l115 -23v-464h-535zM698 553h271l-136 553z" />
    <glyph glyph-name="uni0204" unicode="&#x204;" horiz-adv-x="1493" 
d="M529 2321h490l239 -640h-425zM-122 2321h490l339 -640h-425zM870 384q68 0 128 11.5t110.5 29.5t91.5 41t72 46h167v-512h-1337v434l128 25v616l-128 25v436h1337v-512h-161q-32 22 -74 45t-93.5 41.5t-111.5 30t-129 11.5v-273l300 65v-354l-300 65v-271z" />
    <glyph glyph-name="uni0205" unicode="&#x205;" horiz-adv-x="1395" 
d="M473 2208h490l239 -640h-425zM-178 2208h490l339 -640h-425zM818 789l277 59v-285l-277 60v-221q60 0 116 8.5t104 23.5t88 35t69 43h137v-512h-1236v399l120 23v567l-120 23v396h1236v-512h-137q-29 22 -69 42t-88 35t-104 24t-116 9v-217z" />
    <glyph glyph-name="uni0206" unicode="&#x206;" horiz-adv-x="1493" 
d="M369 1681q0 112 34.5 195.5t91 139t128.5 83t147 27.5q76 0 148.5 -27.5t129 -83t91 -139t34.5 -195.5h-269q0 37 -11.5 65.5t-30.5 48t-42.5 29t-48.5 9.5t-49 -9.5t-42.5 -29t-30 -48t-11.5 -65.5h-269zM870 384q68 0 128 11.5t110.5 29.5t91.5 41t72 46h167v-512
h-1337v434l128 25v616l-128 25v436h1337v-512h-161q-32 22 -74 45t-93.5 41.5t-111.5 30t-129 11.5v-273l300 65v-354l-300 65v-271z" />
    <glyph glyph-name="uni0207" unicode="&#x207;" horiz-adv-x="1395" 
d="M312 1568q0 112 34.5 195.5t91 139t128.5 83t147 27.5q76 0 148.5 -27.5t129 -83t91 -139t34.5 -195.5h-269q0 37 -11.5 65.5t-30.5 48t-42.5 29t-48.5 9.5t-49 -9.5t-42.5 -29t-30 -48t-11.5 -65.5h-269zM818 789l277 59v-285l-277 60v-221q60 0 116 8.5t104 23.5t88 35
t69 43h137v-512h-1236v399l120 23v567l-120 23v396h1236v-512h-137q-29 22 -69 42t-88 35t-104 24t-116 9v-217z" />
    <glyph glyph-name="uni0208" unicode="&#x208;" horiz-adv-x="1100" 
d="M309 2321h490l239 -640h-425zM-342 2321h490l339 -640h-425zM102 1536h896v-434l-128 -25v-618l128 -25v-434h-896v434l128 25v618l-128 25v434z" />
    <glyph glyph-name="uni0209" unicode="&#x209;" horiz-adv-x="1036" 
d="M277 2208h490l239 -640h-425zM-374 2208h490l339 -640h-425zM97 1408h842v-394l-120 -23v-569l120 -23v-399h-842v399l120 23v569l-120 23v394z" />
    <glyph glyph-name="uni020A" unicode="&#x20a;" horiz-adv-x="1100" 
d="M148 1681q0 112 34.5 195.5t91 139t128.5 83t147 27.5q76 0 148.5 -27.5t129 -83t91 -139t34.5 -195.5h-269q0 37 -11.5 65.5t-30.5 48t-42.5 29t-48.5 9.5t-49 -9.5t-42.5 -29t-30 -48t-11.5 -65.5h-269zM102 1536h896v-434l-128 -25v-618l128 -25v-434h-896v434l128 25
v618l-128 25v434z" />
    <glyph glyph-name="uni020B" unicode="&#x20b;" horiz-adv-x="1036" 
d="M116 1568q0 112 34.5 195.5t91 139t128.5 83t147 27.5q76 0 148.5 -27.5t129 -83t91 -139t34.5 -195.5h-269q0 37 -11.5 65.5t-30.5 48t-42.5 29t-48.5 9.5t-49 -9.5t-42.5 -29t-30 -48t-11.5 -65.5h-269zM97 1408h842v-394l-120 -23v-569l120 -23v-399h-842v399l120 23
v569l-120 23v394z" />
    <glyph glyph-name="uni020C" unicode="&#x20c;" horiz-adv-x="1920" 
d="M718 2321h490l239 -640h-425zM67 2321h490l339 -640h-425zM959 -18q-122 0 -235.5 15t-213 56t-181.5 105.5t-141 155t-91.5 208t-32.5 264.5q0 138 32 249t90 197t139.5 148t181 101.5t214 58.5t238.5 19t239 -19t215 -59t181.5 -102t139.5 -148t90 -196.5t32 -248.5
q0 -216 -70.5 -370.5t-192.5 -252.5t-285 -139.5t-349 -41.5zM959 1102q-64 0 -107.5 -16.5t-72 -43.5t-43.5 -61t-22.5 -69t-8.5 -68t-1 -58t1 -58t8.5 -68.5t22.5 -70.5t43.5 -62.5t72 -44.5t107.5 -17t107.5 17t72.5 44.5t44.5 62.5t22.5 70.5t8.5 68.5t1.5 58t-1.5 58
t-8.5 68t-22.5 69t-44.5 61t-72.5 43.5t-107.5 16.5z" />
    <glyph glyph-name="uni020D" unicode="&#x20d;" horiz-adv-x="1803" 
d="M660 2208h490l239 -640h-425zM9 2208h490l339 -640h-425zM901 -18q-176 0 -329.5 37.5t-267 129t-179 233.5t-65.5 341q0 195 65.5 332.5t179.5 224t267 126.5t329 40q175 0 328.5 -40t268 -126.5t180.5 -224t66 -332.5q0 -132 -30 -239.5t-84.5 -191t-131 -144
t-170.5 -100t-202 -53t-225 -13.5zM901 1020q-59 0 -99.5 -15t-67 -39t-41.5 -55t-21.5 -63.5t-8 -64t-1.5 -55.5q0 -23 1 -54.5t7 -66t20 -68.5t40.5 -61t68 -43.5t102.5 -16.5q60 0 101.5 16t68 42.5t41.5 59.5t21.5 66.5t8 65.5t1.5 55q0 24 -1.5 55.5t-8 64.5
t-21.5 64.5t-41.5 56.5t-68 40.5t-101.5 15.5z" />
    <glyph glyph-name="uni020E" unicode="&#x20e;" horiz-adv-x="1920" 
d="M557 1681q0 112 34.5 195.5t91 139t128.5 83t147 27.5q76 0 148.5 -27.5t129 -83t91 -139t34.5 -195.5h-269q0 37 -11.5 65.5t-30.5 48t-42.5 29t-48.5 9.5t-49 -9.5t-42.5 -29t-30 -48t-11.5 -65.5h-269zM959 -18q-122 0 -235.5 15t-213 56t-181.5 105.5t-141 155
t-91.5 208t-32.5 264.5q0 138 32 249t90 197t139.5 148t181 101.5t214 58.5t238.5 19t239 -19t215 -59t181.5 -102t139.5 -148t90 -196.5t32 -248.5q0 -216 -70.5 -370.5t-192.5 -252.5t-285 -139.5t-349 -41.5zM959 1102q-64 0 -107.5 -16.5t-72 -43.5t-43.5 -61t-22.5 -69
t-8.5 -68t-1 -58t1 -58t8.5 -68.5t22.5 -70.5t43.5 -62.5t72 -44.5t107.5 -17t107.5 17t72.5 44.5t44.5 62.5t22.5 70.5t8.5 68.5t1.5 58t-1.5 58t-8.5 68t-22.5 69t-44.5 61t-72.5 43.5t-107.5 16.5z" />
    <glyph glyph-name="uni020F" unicode="&#x20f;" horiz-adv-x="1803" 
d="M499 1568q0 112 34.5 195.5t91 139t128.5 83t147 27.5q76 0 148.5 -27.5t129 -83t91 -139t34.5 -195.5h-269q0 37 -11.5 65.5t-30.5 48t-42.5 29t-48.5 9.5t-49 -9.5t-42.5 -29t-30 -48t-11.5 -65.5h-269zM901 -18q-176 0 -329.5 37.5t-267 129t-179 233.5t-65.5 341
q0 195 65.5 332.5t179.5 224t267 126.5t329 40q175 0 328.5 -40t268 -126.5t180.5 -224t66 -332.5q0 -132 -30 -239.5t-84.5 -191t-131 -144t-170.5 -100t-202 -53t-225 -13.5zM901 1020q-59 0 -99.5 -15t-67 -39t-41.5 -55t-21.5 -63.5t-8 -64t-1.5 -55.5q0 -23 1 -54.5
t7 -66t20 -68.5t40.5 -61t68 -43.5t102.5 -16.5q60 0 101.5 16t68 42.5t41.5 59.5t21.5 66.5t8 65.5t1.5 55q0 24 -1.5 55.5t-8 64.5t-21.5 64.5t-41.5 56.5t-68 40.5t-101.5 15.5z" />
    <glyph glyph-name="uni0210" unicode="&#x210;" horiz-adv-x="1840" 
d="M297 2321h490l239 -640h-425zM-354 2321h490l339 -640h-425zM1765 0h-636l-62 121t-62 133t-56 143t-44 152h-35v-549h-768v434l128 25v618l-128 25v434h871q173 0 299 -16t214 -45.5t142.5 -72t85 -96t41 -117t10.5 -134.5q0 -72 -13.5 -130.5t-47.5 -107.5t-93 -89.5
t-150 -76.5q19 -40 57 -93.5t82 -109l88.5 -108l76.5 -89.5v-251zM870 844q58 0 105.5 5t81 23t51.5 53t18 94q0 58 -18 92.5t-51.5 53.5t-81 25t-105.5 6v-352z" />
    <glyph glyph-name="uni0211" unicode="&#x211;" horiz-adv-x="1732" 
d="M637 2208h490l239 -640h-425zM-14 2208h490l339 -640h-425zM1660 0h-598l-58 110.5t-58 122.5t-52.5 132t-41.5 140h-33v-505h-722v399l120 23v569l-120 23v394h819q163 0 281.5 -14t201 -41t133.5 -65.5t79.5 -87t38.5 -106.5t10 -123q0 -66 -12.5 -120t-44.5 -99
t-87.5 -82.5t-141.5 -70.5q18 -36 53.5 -85.5t77.5 -101l83.5 -99.5l71.5 -82v-231zM819 776q55 0 99.5 5.5t76 24t48.5 54.5t17 97q0 60 -17 96t-48.5 55.5t-76 25.5t-99.5 6v-364z" />
    <glyph glyph-name="uni0212" unicode="&#x212;" horiz-adv-x="1840" 
d="M495 1681q0 112 34.5 195.5t91 139t128.5 83t147 27.5q76 0 148.5 -27.5t129 -83t91 -139t34.5 -195.5h-269q0 37 -11.5 65.5t-30.5 48t-42.5 29t-48.5 9.5t-49 -9.5t-42.5 -29t-30 -48t-11.5 -65.5h-269zM1765 0h-636l-62 121t-62 133t-56 143t-44 152h-35v-549h-768
v434l128 25v618l-128 25v434h871q173 0 299 -16t214 -45.5t142.5 -72t85 -96t41 -117t10.5 -134.5q0 -72 -13.5 -130.5t-47.5 -107.5t-93 -89.5t-150 -76.5q19 -40 57 -93.5t82 -109l88.5 -108l76.5 -89.5v-251zM870 844q58 0 105.5 5t81 23t51.5 53t18 94q0 58 -18 92.5
t-51.5 53.5t-81 25t-105.5 6v-352z" />
    <glyph glyph-name="uni0213" unicode="&#x213;" horiz-adv-x="1732" 
d="M477 1568q0 112 34.5 195.5t91 139t128.5 83t147 27.5q76 0 148.5 -27.5t129 -83t91 -139t34.5 -195.5h-269q0 37 -11.5 65.5t-30.5 48t-42.5 29t-48.5 9.5t-49 -9.5t-42.5 -29t-30 -48t-11.5 -65.5h-269zM1660 0h-598l-58 110.5t-58 122.5t-52.5 132t-41.5 140h-33v-505
h-722v399l120 23v569l-120 23v394h819q163 0 281.5 -14t201 -41t133.5 -65.5t79.5 -87t38.5 -106.5t10 -123q0 -66 -12.5 -120t-44.5 -99t-87.5 -82.5t-141.5 -70.5q18 -36 53.5 -85.5t77.5 -101l83.5 -99.5l71.5 -82v-231zM819 776q55 0 99.5 5.5t76 24t48.5 54.5t17 97
q0 60 -17 96t-48.5 55.5t-76 25.5t-99.5 6v-364z" />
    <glyph glyph-name="uni0214" unicode="&#x214;" horiz-adv-x="1950" 
d="M733 2321h490l239 -640h-425zM82 2321h490l339 -640h-425zM1758 1077q-1 -32 -1 -62.5v-59.5v-169q0 -212 -57.5 -365.5t-157 -253t-232.5 -142.5t-283 -43q-117 0 -224.5 15.5t-200.5 58t-169 108t-130.5 156t-84 206.5t-29.5 260v291l-128 25v434h831v-434l-128 -25
v-129v-50.5t0.5 -47.5t0.5 -39v-25q0 -25 1 -58t8.5 -68.5t22.5 -70.5t43.5 -62.5t72 -44.5t107.5 -17t107.5 17t72.5 44.5t44.5 62.5t22.5 70.5t8.5 68.5t1.5 58v25t-0.5 39t-0.5 47.5v50.5v129l-128 25v434h738v-434z" />
    <glyph glyph-name="uni0215" unicode="&#x215;" 
d="M672 2208h490l239 -640h-425zM21 2208h490l339 -640h-425zM1650 991q-1 -30 -1 -58.5v-54.5v-155q0 -200 -55 -342.5t-149 -233.5t-220.5 -128t-268.5 -37q-164 0 -306.5 37t-248 128.5t-166 233.5t-60.5 342v268l-120 23v394h781v-394l-120 -23v-119v-48.5t0.5 -45.5
t0.5 -36.5v-20.5q0 -23 1 -53.5t8 -63t21.5 -64t41 -56.5t67 -40.5t100.5 -15.5t101.5 15.5t68 41t41.5 57.5t21.5 64.5t8 63t1.5 53.5v22.5t-0.5 36t-0.5 44v46.5v119l-120 23v394h694v-394z" />
    <glyph glyph-name="uni0216" unicode="&#x216;" horiz-adv-x="1950" 
d="M571 1681q0 112 34.5 195.5t91 139t128.5 83t147 27.5q76 0 148.5 -27.5t129 -83t91 -139t34.5 -195.5h-269q0 37 -11.5 65.5t-30.5 48t-42.5 29t-48.5 9.5t-49 -9.5t-42.5 -29t-30 -48t-11.5 -65.5h-269zM1758 1077q-1 -32 -1 -62.5v-59.5v-169q0 -212 -57.5 -365.5
t-157 -253t-232.5 -142.5t-283 -43q-117 0 -224.5 15.5t-200.5 58t-169 108t-130.5 156t-84 206.5t-29.5 260v291l-128 25v434h831v-434l-128 -25v-129v-50.5t0.5 -47.5t0.5 -39v-25q0 -25 1 -58t8.5 -68.5t22.5 -70.5t43.5 -62.5t72 -44.5t107.5 -17t107.5 17t72.5 44.5
t44.5 62.5t22.5 70.5t8.5 68.5t1.5 58v25t-0.5 39t-0.5 47.5v50.5v129l-128 25v434h738v-434z" />
    <glyph glyph-name="uni0217" unicode="&#x217;" 
d="M511 1568q0 112 34.5 195.5t91 139t128.5 83t147 27.5q76 0 148.5 -27.5t129 -83t91 -139t34.5 -195.5h-269q0 37 -11.5 65.5t-30.5 48t-42.5 29t-48.5 9.5t-49 -9.5t-42.5 -29t-30 -48t-11.5 -65.5h-269zM1650 991q-1 -30 -1 -58.5v-54.5v-155q0 -200 -55 -342.5
t-149 -233.5t-220.5 -128t-268.5 -37q-164 0 -306.5 37t-248 128.5t-166 233.5t-60.5 342v268l-120 23v394h781v-394l-120 -23v-119v-48.5t0.5 -45.5t0.5 -36.5v-20.5q0 -23 1 -53.5t8 -63t21.5 -64t41 -56.5t67 -40.5t100.5 -15.5t101.5 15.5t68 41t41.5 57.5t21.5 64.5
t8 63t1.5 53.5v22.5t-0.5 36t-0.5 44v46.5v119l-120 23v394h694v-394z" />
    <glyph glyph-name="uni0218" unicode="&#x218;" horiz-adv-x="1495" 
d="M409 -140h640v-511q0 -127 -44 -213.5t-116 -140t-164 -76.5t-188 -23v324q19 1 41 7t41 20t32 38.5t13 62.5h-255v512zM1418 482q-1 -99 -28.5 -175.5t-76.5 -132t-115 -94t-142 -62t-159.5 -30t-167.5 -6.5q-152 0 -267 12q-66 8 -197 44q-107 29 -168 61v395h301
q52 -72 117.5 -106t134.5 -34q18 0 40 3t41.5 17t33 44t13.5 84q-86 8 -170.5 23t-161.5 41t-143.5 65.5t-115 95.5t-76 131.5t-27.5 174.5q0 106 28 186.5t76.5 139t114 97t141 61.5t157 29t162.5 6q118 0 212.5 -8.5t170.5 -26.5t134.5 -40.5t104.5 -43.5v-390h-301
q-51 72 -113.5 106t-128.5 34q-18 0 -41 -4.5t-43 -21t-34 -48t-14 -85.5q175 -6 308 -38t221.5 -96.5t133.5 -165t45 -242.5z" />
    <glyph glyph-name="uni0219" unicode="&#x219;" horiz-adv-x="1387" 
d="M354 -140h640v-511q0 -127 -44 -213.5t-116 -140t-164 -76.5t-188 -23v324q19 1 41 7t41 20t32 38.5t13 62.5h-255v512zM1322 443q0 -93 -26.5 -164.5t-72 -124t-108 -87.5t-134.5 -56.5t-150.5 -25t-156.5 -3.5q-108 0 -195 5t-155.5 22t-121 37.5t-92.5 40.5v347h283
q42 -66 96 -97t111 -31q17 0 38 3t39 19t30.5 49.5t12.5 94.5q-81 7 -160.5 20.5t-152 36.5t-134.5 58.5t-107.5 86t-71.5 119t-26 157.5q0 102 26 178.5t71 131.5t106.5 91t132.5 57t148 29.5t154 8.5q109 0 195.5 -11t155 -28t121 -37.5t93.5 -39.5v-350h-303
q-38 72 -87 105t-100 33q-17 0 -39 -5.5t-41 -24.5t-32 -56t-13 -100q165 -6 289.5 -35t208.5 -86.5t126 -148t42 -219.5z" />
    <glyph glyph-name="uni021A" unicode="&#x21a;" horiz-adv-x="1480" 
d="M420 -122h640v-511q0 -127 -44 -213.5t-116 -140t-164 -76.5t-188 -23v324q19 1 41 7t41 20t32 38.5t13 62.5h-255v512zM1444 1536v-512h-168q-17 22 -39 45t-49 41.5t-59 30t-69 11.5v-693l128 -25v-434h-896v434l128 25v693q-37 0 -69 -11.5t-59 -30t-49 -41.5t-39 -45
h-168v512h1408z" />
    <glyph glyph-name="uni021B" unicode="&#x21b;" horiz-adv-x="1444" 
d="M402 -122h640v-511q0 -127 -44 -213.5t-116 -140t-164 -76.5t-188 -23v324q19 1 41 7t41 20t32 38.5t13 62.5h-255v512zM421 1036q-52 0 -92 -14t-67 -35t-41 -45.5t-14 -45.5h-167v512h1364v-512h-167q0 21 -14 45.5t-41 45.5t-67 35t-92 14v-614l120 -23v-399h-842v399
l120 23v614z" />
    <glyph glyph-name="circumflex" unicode="&#x2c6;" horiz-adv-x="1275" 
d="M53 1664l340 639h490l339 -639h-425l-159 383l-160 -383h-425z" />
    <glyph glyph-name="caron" unicode="&#x2c7;" horiz-adv-x="1275" 
d="M478 2303l160 -383l159 383h425l-339 -639h-490l-340 639h425z" />
    <glyph glyph-name="breve" unicode="&#x2d8;" horiz-adv-x="934" 
d="M334 1980q0 -38 11.5 -66t30 -47.5t42.5 -29t49 -9.5t48.5 9.5t42.5 29t30.5 47.5t11.5 66h269q0 -112 -34.5 -195.5t-91 -139t-129 -83t-148.5 -27.5q-75 0 -147 27.5t-128.5 83t-91 139t-34.5 195.5h269z" />
    <glyph glyph-name="dotaccent" unicode="&#x2d9;" horiz-adv-x="829" 
d="M95 2176h640v-512h-640v512z" />
    <glyph glyph-name="ring" unicode="&#x2da;" horiz-adv-x="938" 
d="M871 1926q0 -98 -34.5 -171t-91 -121.5t-129 -73t-148.5 -24.5q-75 0 -147 24.5t-128.5 73t-91 121.5t-34.5 171q0 96 34.5 168.5t90.5 121t128.5 72.5t147.5 24t147.5 -24t129.5 -72.5t91.5 -121t34.5 -168.5zM642 1921q0 48 -15 84.5t-39.5 61t-55.5 37t-64 12.5
q-32 0 -63 -12t-55 -36.5t-39 -61t-15 -85.5q0 -50 15 -86.5t39 -61.5t55 -37t64 -12t64 12.5t55 37t39 61.5t15 86z" />
    <glyph glyph-name="ogonek" unicode="&#x2db;" horiz-adv-x="767" 
d="M380 -422q0 -69 35 -100t101 -31q67 0 183 38v-317q-64 -21 -131 -32.5t-125 -11.5q-84 0 -154 22.5t-121 70t-79.5 120t-28.5 171.5q0 50 11 99t28.5 94.5t40.5 86.5t47 77q55 82 128 155h334q-38 -37 -72 -75t-63 -76q-25 -33 -49 -69.5t-43 -74t-30.5 -75t-11.5 -72.5
z" />
    <glyph glyph-name="tilde" unicode="&#x2dc;" horiz-adv-x="1053" 
d="M915 1619q-32 -45 -74 -63t-87 -18q-46 0 -95 15t-99 33t-100 33t-98 15q-69 0 -139 -23t-144 -82l62 426q37 42 79.5 58.5t90.5 16.5q45 0 93 -18t97 -39.5t98 -39.5t97 -18q68 0 136.5 26.5t142.5 94.5z" />
    <glyph glyph-name="hungarumlaut" unicode="&#x2dd;" horiz-adv-x="1740" 
d="M1227 1664h-435l405 640h490zM559 1664h-405l249 640h490z" />
    <glyph glyph-name="uni030F" unicode="&#x30f;" horiz-adv-x="1500" 
d="M703 2304h490l239 -640h-425zM52 2304h490l339 -640h-425z" />
    <glyph glyph-name="uni0311" unicode="&#x311;" horiz-adv-x="934" 
d="M65 1535q0 112 34.5 195.5t91 139t128.5 83t147 27.5q76 0 148.5 -27.5t129 -83t91 -139t34.5 -195.5h-269q0 37 -11.5 65.5t-30.5 48t-42.5 29t-48.5 9.5t-49 -9.5t-42.5 -29t-30 -48t-11.5 -65.5h-269z" />
    <glyph glyph-name="uni0326" unicode="&#x326;" horiz-adv-x="887" 
d="M72 -262h640v-511q0 -127 -44 -213.5t-116 -140t-164 -76.5t-188 -23v324q19 1 41 7t41 20t32 38.5t13 62.5h-255v512z" />
    <glyph glyph-name="Delta" unicode="&#x394;" horiz-adv-x="1452" 
d="M1393 0h-1332l286 1171h746zM590 216h271l-136 653z" />
    <glyph glyph-name="Delta" unicode="&#x2206;" horiz-adv-x="1452" 
d="M1393 0h-1332l286 1171h746zM590 216h271l-136 653z" />
    <glyph glyph-name="mu" unicode="&#x3bc;" horiz-adv-x="1825" 
d="M174 991l-120 23v394h781v-394l-120 -23l1 -450q14 -17 35.5 -37t51 -37t67.5 -28t85 -11q60 0 101.5 15.5t68 41t41.5 57.5t21.5 64.5t8 63t1.5 53.5v22.5t-0.5 36t-0.5 44v46.5v119l-120 23v394h694v-394l-121 -23q-1 -30 -1 -58.5v-54.5v-155q0 -203 -51.5 -347.5
t-140.5 -236.5t-207.5 -134.5t-253.5 -42.5q-85 0 -160.5 20.5t-147.5 63.5v-301h-513v1246z" />
    <glyph glyph-name="endash" unicode="&#x2013;" horiz-adv-x="735" 
d="M623 896v-256h-512v256h512z" />
    <glyph glyph-name="emdash" unicode="&#x2014;" horiz-adv-x="921" 
d="M809 896v-256h-698v256h698z" />
    <glyph glyph-name="quoteleft" unicode="&#x2018;" horiz-adv-x="841" 
d="M747 640h-640v511q0 118 44 199.5t116 131.5t164 72t188 22v-296q-20 -1 -42.5 -7t-41 -20t-31 -38.5t-12.5 -62.5h255v-512z" />
    <glyph glyph-name="quoteright" unicode="&#x2019;" horiz-adv-x="784" 
d="M69 1536h640v-511q0 -127 -44 -213.5t-116 -140t-164 -76.5t-188 -23v324q19 1 41 7t41 20t32 38.5t13 62.5h-255v512z" />
    <glyph glyph-name="quotesinglbase" unicode="&#x201a;" horiz-adv-x="847" 
d="M103 512h640v-511q0 -127 -44 -213.5t-116 -140t-164 -76.5t-188 -23v324q19 1 41 7t41 20t32 38.5t13 62.5h-255v512z" />
    <glyph glyph-name="quotedblleft" unicode="&#x201c;" horiz-adv-x="1609" 
d="M1515 640h-640v511q0 118 44 199.5t116 131.5t164 72t188 22v-296q-20 -1 -42.5 -7t-41 -20t-31 -38.5t-12.5 -62.5h255v-512zM747 640h-640v511q0 118 44 199.5t116 131.5t164 72t188 22v-296q-20 -1 -42.5 -7t-41 -20t-31 -38.5t-12.5 -62.5h255v-512z" />
    <glyph glyph-name="quotedblright" unicode="&#x201d;" horiz-adv-x="1552" 
d="M837 1536h640v-511q0 -127 -44 -213.5t-116 -140t-164 -76.5t-188 -23v324q19 1 41 7t41 20t32 38.5t13 62.5h-255v512zM69 1536h640v-511q0 -127 -44 -213.5t-116 -140t-164 -76.5t-188 -23v324q19 1 41 7t41 20t32 38.5t13 62.5h-255v512z" />
    <glyph glyph-name="quotedblbase" unicode="&#x201e;" horiz-adv-x="1614" 
d="M871 512h640v-511q0 -127 -44 -213.5t-116 -140t-164 -76.5t-188 -23v324q19 1 41 7t41 20t32 38.5t13 62.5h-255v512zM103 512h640v-511q0 -127 -44 -213.5t-116 -140t-164 -76.5t-188 -23v324q19 1 41 7t41 20t32 38.5t13 62.5h-255v512z" />
    <glyph glyph-name="dagger" unicode="&#x2020;" horiz-adv-x="1016" 
d="M60 1280h256v256h384v-256h256v-320h-256v-640h-384v640h-256v320z" />
    <glyph glyph-name="daggerdbl" unicode="&#x2021;" horiz-adv-x="1110" 
d="M107 1280h256v256h384v-256h256v-320h-256v-192h256v-320h-256v-128h-384v128h-256v320h256v192h-256v320z" />
    <glyph glyph-name="bullet" unicode="&#x2022;" horiz-adv-x="883" 
d="M826 641q0 -89 -33 -155.5t-87.5 -110.5t-124 -66.5t-141.5 -22.5t-141 22t-122.5 66.5t-86.5 111t-33 155.5q0 88 33 154t86.5 110t122.5 66t141 22t141.5 -22t124 -66t87.5 -110t33 -154z" />
    <glyph glyph-name="ellipsis" unicode="&#x2026;" horiz-adv-x="2622" 
d="M1878 512h640v-512h-640v512zM991 512h640v-512h-640v512zM104 512h640v-512h-640v512z" />
    <glyph glyph-name="perthousand" unicode="&#x2030;" horiz-adv-x="4833" 
d="M663 378q-126 0 -236.5 34.5t-193 108t-130 189.5t-47.5 280q0 158 47.5 269.5t130 181.5t193 102t236.5 32q125 0 236 -32t193.5 -102t130.5 -181.5t48 -269.5q0 -164 -48 -280t-130.5 -189.5t-193 -108t-236.5 -34.5zM1589 1536h640l-384 -1536h-640zM663 1224
q-43 0 -73 -12.5t-49 -32t-29.5 -45t-15 -51.5t-5.5 -50.5t-1 -42.5t1 -42.5t5.5 -51t15 -52t29.5 -46t49 -33t73 -12.5t73 12.5t49 33t29.5 46t15.5 52t6 51t1 42.5t-1 42.5t-6 50.5t-15.5 51.5t-29.5 45t-49 32t-73 12.5zM4169 -42q-126 0 -236.5 34.5t-193 108
t-130 189.5t-47.5 280q0 158 47.5 269.5t130 181.5t193 102t236.5 32q125 0 236 -32t193.5 -102t130.5 -181.5t48 -269.5q0 -164 -48 -280t-130.5 -189.5t-193 -108t-236.5 -34.5zM2797 -42q-126 0 -236.5 34.5t-193 108t-130 189.5t-47.5 280q0 158 47.5 269.5t130 181.5
t193 102t236.5 32q125 0 236 -32t193.5 -102t130.5 -181.5t48 -269.5q0 -164 -48 -280t-130.5 -189.5t-193 -108t-236.5 -34.5zM4169 804q-43 0 -73 -12.5t-49 -32t-29.5 -45t-15 -51.5t-5.5 -50.5t-1 -42.5t1 -42.5t5.5 -51t15 -52t29.5 -46t49 -33t73 -12.5t73 12.5t49 33
t29.5 46t15.5 52t6 51t1 42.5t-1 42.5t-6 50.5t-15.5 51.5t-29.5 45t-49 32t-73 12.5zM2797 804q-43 0 -73 -12.5t-49 -32t-29.5 -45t-15 -51.5t-5.5 -50.5t-1 -42.5t1 -42.5t5.5 -51t15 -52t29.5 -46t49 -33t73 -12.5t73 12.5t49 33t29.5 46t15.5 52t6 51t1 42.5t-1 42.5
t-6 50.5t-15.5 51.5t-29.5 45t-49 32t-73 12.5z" />
    <glyph glyph-name="guilsinglleft" unicode="&#x2039;" horiz-adv-x="908" 
d="M467 627l334 -163v-481l-733 374v690l733 374v-632z" />
    <glyph glyph-name="guilsinglright" unicode="&#x203a;" horiz-adv-x="909" 
d="M107 789v632l733 -374v-690l-733 -374v481l334 163z" />
    <glyph glyph-name="fraction" unicode="&#x2044;" horiz-adv-x="1015" 
d="M380 1536h640l-384 -1536h-640z" />
    <glyph glyph-name="foursuperior" unicode="&#x2074;" horiz-adv-x="1152" 
d="M27 1085l433 464l432 27v-491h216v-173h-216v-90l87 -17v-293h-606v293l87 17v90h-433v173zM276 1085h184v216z" />
    <glyph glyph-name="Euro" unicode="&#x20ac;" horiz-adv-x="1681" 
d="M192 1001q28 149 95.5 257.5t168.5 179t233 104.5t289 34q139 0 243.5 -20t182.5 -43q92 -28 166 -63v-477h-281q-48 88 -108.5 129t-123.5 41q-69 0 -132.5 -36.5t-105.5 -105.5h238v-166h-291q-1 -12 -1.5 -24t-0.5 -25t0.5 -25.5t1.5 -23.5h291v-166h-246
q40 -72 111 -104t173 -32q88 0 209 28.5t266 88.5v-481q-153 -54 -298.5 -82.5t-285.5 -28.5q-147 0 -278.5 37t-236 113t-177 190.5t-102.5 270.5h-135v166h117q-1 12 -1 24v25v24.5t1 24.5h-117v166h135z" />
    <glyph glyph-name="trademark" unicode="&#x2122;" horiz-adv-x="2464" 
d="M1526 1077v-437h-448v253l75 14v362l-75 14v253h448l187 -344l187 344h448v-253l-75 -14v-362l75 -14v-253h-448v437l-187 -322zM995 1536v-299h-129q-11 13 -24 26.5t-29.5 24t-36 17.5t-43.5 7v-405l75 -14v-253h-523v253l75 14v405q-22 0 -41.5 -7t-36.5 -17.5
t-31 -24t-24 -26.5h-128v299h896z" />
    <glyph glyph-name="minus" unicode="&#x2212;" horiz-adv-x="1000" 
d="M116 896h768v-384h-768v384z" />
    <glyph glyph-name="integral" unicode="&#x222b;" horiz-adv-x="1371" 
d="M395 958q0 89 9 171.5t32.5 154.5t63.5 131t101.5 101.5t147 65.5t200.5 23q87 0 165 -21.5t136 -72.5t92 -136t34 -211q0 -8 -0.5 -16.5t-0.5 -16.5h-317q3 8 5.5 25.5t2.5 37.5q0 16 -2 32t-7 29t-13 21t-20 8q-15 0 -28 -29.5t-13 -104.5v-738q0 -111 -35 -209.5
t-103 -172t-168.5 -116t-231.5 -42.5q-87 0 -168.5 23.5t-144.5 69t-101 112t-38 152.5q0 61 21 132h314q-1 -6 -3 -26t-2 -43q0 -14 1.5 -28t5 -25t10 -18t16.5 -7q7 0 14 9.5t12.5 32t9 59.5t3.5 93v550z" />
    <glyph glyph-name="lozenge" unicode="&#x25ca;" horiz-adv-x="1445" 
d="M343 1536h746l300 -763l-300 -772h-746l-286 772zM721 303l136 470l-136 461l-135 -461z" />
    <glyph glyph-name="uniF8A0" unicode="&#xf8a0;" horiz-adv-x="0" 
 />
    <glyph glyph-name="uniF8FF" unicode="&#xf8ff;" horiz-adv-x="0" 
 />
    <glyph glyph-name="fi" unicode="&#xfb01;" horiz-adv-x="2349" 
d="M818 759l256 59v-305l-256 60v-151l120 -26v-396h-842v399l120 23v567l-120 23v396h1163v-512h-167q-43 45 -113 77.5t-161 32.5v-247zM1410 1408h842v-394l-120 -23v-569l120 -23v-399h-842v399l120 23v569l-120 23v394z" />
    <glyph glyph-name="fl" unicode="&#xfb02;" horiz-adv-x="2592" 
d="M818 759l256 59v-305l-256 60v-151l120 -26v-396h-842v399l120 23v567l-120 23v396h1163v-512h-167q-43 45 -113 77.5t-161 32.5v-247zM2131 384q42 0 80 11.5t70.5 30t59 41t46.5 45.5h167v-512h-1144v399l120 23v569l-120 23v394h842v-394l-121 -23v-607z" />
    </font>
</defs>
</svg>
